<svg width="80" height="80" viewBox="0 0 80 80" fill="none" xmlns="http://www.w3.org/2000/svg">
<g clip-path="url(#clip0_635_448)">
<rect width="80" height="80" fill="white"/>
<path d="M53.7645 7.896L53.6066 7.83898L53.2335 7.68221L52.8604 7.56818L52.516 7.43991L52.1428 7.28313L51.7697 7.15486L51.3966 7.04084L50.9947 6.91256L50.6216 6.82705L50.2485 6.69877L49.8753 6.61326L49.4735 6.48499L48.9138 8.58012L49.287 8.7084L49.6314 8.79391L50.0045 8.89368L50.3489 9.0077L50.7221 9.10747L51.0665 9.22149L51.3966 9.34976L51.7697 9.47804L52.1141 9.59206L52.4585 9.72033L52.803 9.87711L52.9465 9.93412L53.7645 7.896Z" fill="#4361EE"/>
<path d="M59.7775 10.9461L59.4618 10.7608L59.1604 10.547L58.816 10.3617L58.4716 10.1765L58.1702 9.99117L57.8258 9.80588L57.4813 9.6206L57.1369 9.43531L56.7925 9.25003L56.4624 9.1075L56.0893 8.92222L55.8309 8.79395L54.9125 10.7608L55.1564 10.8891L55.4722 11.0459L55.8022 11.2026L56.118 11.3879L56.4193 11.5305L56.7638 11.7157L57.0795 11.8725L57.3809 12.0578L57.6966 12.2431L58.0123 12.4284L58.3137 12.6137L58.6294 12.7989L59.7775 10.9461Z" fill="#4361EE"/>
<path d="M65.1449 15.0223L64.9583 14.837L64.6713 14.5805L64.3699 14.3382L64.0829 14.0959L63.8102 13.8393L63.4945 13.597L63.2218 13.3833L62.9061 13.141L62.6047 12.9272L62.3177 12.6706L62.0163 12.4568L61.7006 12.243L61.6432 12.186L60.3947 13.9676L60.4234 13.9961L60.7104 14.2099L60.983 14.438L61.2988 14.6517L61.5714 14.8655L61.8585 15.0793L62.1311 15.2931L62.4182 15.5069L62.6621 15.7492L62.9348 15.9772L63.2218 16.2195L63.4658 16.4618L63.6811 16.6186L65.1449 15.0223Z" fill="#4361EE"/>
<path d="M69.6942 19.9822L69.5507 19.7969L69.3354 19.5118L69.0771 19.1983L68.8331 18.9275L68.6178 18.6139L68.3739 18.3431L68.1155 18.0723L67.8716 17.7872L67.6276 17.5164L67.3693 17.2314L67.0966 16.9606L66.8526 16.6755L66.7522 16.59L65.2023 18.1008L65.2597 18.1863L65.518 18.4286L65.762 18.6852L65.9772 18.956L66.2212 19.1983L66.4795 19.4833L66.6948 19.7541L66.9388 20.0107L67.154 20.2815L67.3693 20.5665L67.5989 20.8373L67.8142 21.1081L67.9577 21.2934L69.6942 19.9822Z" fill="#4361EE"/>
<path d="M73.2677 25.6691L73.1816 25.4838L73.0237 25.1845L72.8371 24.8424L72.6506 24.5004L72.464 24.1583L72.2775 23.859L72.0909 23.5169L71.9043 23.2034L71.6891 22.9041L71.5025 22.562L71.2872 22.2484L71.1007 21.9491L71.0002 21.7924L69.1776 23.0181L69.2637 23.1464L69.4503 23.4314L69.6368 23.7307L69.8234 24.0443L70.01 24.3151L70.1965 24.6286L70.3831 24.9279L70.5697 25.2415L70.7275 25.5551L70.9141 25.8544L71.072 26.1679L71.2155 26.51L71.3159 26.6525L73.2677 25.6691Z" fill="#4361EE"/>
<path d="M75.7503 31.8973V31.7975L75.6212 31.427L75.5064 31.0992L75.3772 30.7286L75.2481 30.358L75.1332 30.016L75.0041 29.6454L74.8749 29.3033L74.7314 28.9328L74.6023 28.6049L74.4444 28.2344L74.3152 27.8923L74.2291 27.707L72.22 28.5622L72.3061 28.7475L72.4352 29.061L72.5787 29.4031L72.7079 29.7452L72.8371 30.073L72.9519 30.3865L73.081 30.7286L73.2102 31.0707L73.2963 31.3985L73.4255 31.7405L73.5403 32.0826L73.6407 32.4247L73.6694 32.5102L75.7503 31.8973Z" fill="#4361EE"/>
<path d="M77.085 38.4821L77.0563 38.1828L77.0276 37.8122L76.9559 37.4416L76.8984 37.0426L76.841 36.672L76.7693 36.2729L76.7119 35.9023L76.6545 35.5318L76.5827 35.1327L76.4966 34.7621L76.3962 34.3916L76.3388 34.0495L74.2004 34.5768L74.2865 34.8476L74.3583 35.2182L74.4157 35.5603L74.5018 35.9308L74.5736 36.2729L74.631 36.6435L74.6884 37.014L74.7314 37.3419L74.7888 37.7124L74.8462 38.083L74.8749 38.4536L74.918 38.7386L77.085 38.4821Z" fill="#4361EE"/>
<path d="M77.3003 42.4882V42.0889V41.6896V41.3189L77.2716 40.9196V40.7057L75.0615 40.834L75.1046 41.0194V41.3902V41.7467L75.1333 42.1174V42.4882H77.3003Z" fill="#4361EE"/>
<path d="M77.1999 45.1667V45.1382L77.2429 44.6108L77.2716 44.0977L77.3003 43.5704V43.0145V42.4872H75.1333V42.986L75.1046 43.5134V43.998L75.0615 44.4968L75.0328 44.9814V45.0242L77.1999 45.1667Z" fill="#4361EE"/>
<path d="M76.1234 51.7941L76.2095 51.4235L76.3387 50.8961L76.4678 50.383L76.554 49.8842L76.6831 49.3569L76.7692 48.8438L76.841 48.3164L76.9271 47.7891L76.9845 47.4185L74.8175 47.1477L74.7601 47.4755L74.6883 47.9744L74.6022 48.4732L74.5017 48.9578L74.4156 49.4566L74.3152 49.9412L74.2004 50.4116L74.0712 50.8961L73.9851 51.2667L76.1234 51.7941Z" fill="#4361EE"/>
<path d="M73.856 58.108L73.9564 57.9227L74.1717 57.4381L74.3582 56.9393L74.5735 56.4832L74.7601 55.9844L74.9466 55.457L75.1332 54.9724L75.3198 54.4736L75.4633 53.9747L75.5063 53.9462L73.3967 53.3049L73.2389 53.761L73.081 54.2598L72.8944 54.7159L72.7366 55.1862L72.55 55.6423L72.3347 56.1126L72.1482 56.5687L71.9329 57.0248L71.8468 57.2101L73.856 58.108Z" fill="#4361EE"/>
<path d="M39.7721 80C18.9487 80 2 63.1819 2 42.4871C2 21.8065 18.9487 4.97418 39.7721 4.97418V7.61092C20.4125 7.61092 4.65496 23.2603 4.65496 42.4871C4.65496 61.7139 20.4125 77.3633 39.7721 77.3633C52.2863 77.3633 63.9394 70.6788 70.1965 59.9038L72.4927 61.2293C65.762 72.8167 53.2335 80 39.7721 80Z" fill="#4361EE"/>
<path d="M37.1316 0L46.0723 6.29966L37.1316 12.5993V0Z" fill="#4361EE"/>
<path d="M40.1021 71.7192C56.3581 71.7192 69.5362 58.6316 69.5362 42.4871C69.5362 26.3426 56.3581 13.2549 40.1021 13.2549C23.8461 13.2549 10.668 26.3426 10.668 42.4871C10.668 58.6316 23.8461 71.7192 40.1021 71.7192Z" fill="#EF570D"/>
<path d="M30.6591 47.5469V50.996H17.4848C17.6427 49.6705 18.0732 48.4448 18.7908 47.2618C19.4796 46.0646 20.9004 44.5253 23.01 42.5869C24.6891 41.0191 25.7367 39.9359 26.1098 39.3801C26.6408 38.6104 26.8848 37.8408 26.8848 37.0997C26.8848 36.2303 26.6695 35.6174 26.1959 35.1613C25.7654 34.7337 25.1483 34.4772 24.3303 34.4772C23.5553 34.4772 22.9382 34.7195 22.4646 35.1898C22.0054 35.6459 21.7471 36.4583 21.661 37.5273L17.901 37.1567C18.1163 35.0901 18.8338 33.6078 20.0106 32.7241C21.1874 31.8262 22.6512 31.3986 24.4164 31.3986C26.3681 31.3986 27.8894 31.8975 29.0087 32.9379C30.0994 33.9783 30.6591 35.2753 30.6591 36.8146C30.6591 37.7125 30.5013 38.5392 30.1999 39.3373C29.8842 40.1355 29.3962 40.9336 28.6787 41.8315C28.2481 42.4159 27.4014 43.2426 26.2246 44.3258C25.0191 45.409 24.2729 46.1073 23.9572 46.4779C23.6414 46.82 23.3688 47.1905 23.1822 47.5183H30.6591V47.5469ZM40.547 50.996V47.0908H32.5391V43.8269L41.035 31.4129H44.1922V43.8269H46.6463V47.0908H44.1922V50.996H40.547ZM40.547 43.8127V37.1282L36.0838 43.8127H40.547ZM52.9464 31.4984V38.7387C54.1519 37.285 55.6157 36.5581 57.3235 36.5581C58.1989 36.5581 59.0026 36.7434 59.6771 37.0569C60.3946 37.3705 60.9113 37.7695 61.2557 38.2826C61.6288 38.7815 61.8441 39.3231 61.9732 39.9217C62.1311 40.5346 62.1885 41.461 62.1885 42.7295V51.0102H58.4285V43.5561C58.4285 42.0738 58.3424 41.1189 58.2133 40.7483C58.0554 40.3493 57.8114 40.0072 57.4383 39.7934C57.0652 39.5511 56.6346 39.4229 56.0749 39.4229C55.4291 39.4229 54.8694 39.5796 54.3672 39.8789C53.8649 40.1925 53.5348 40.6201 53.2765 41.2329C53.0612 41.8458 52.932 42.7437 52.932 43.9124V50.996H49.1721V31.4984H52.9464Z" fill="white"/>
</g>
<defs>
<clipPath id="clip0_635_448">
<rect width="80" height="80" fill="white"/>
</clipPath>
</defs>
</svg>
