<svg width="161" height="160" viewBox="0 0 161 160" fill="none" xmlns="http://www.w3.org/2000/svg">
<path fill-rule="evenodd" clip-rule="evenodd" d="M88.9963 140.992C90.9464 139.451 93.3551 138.606 95.8399 138.591C97.9574 138.587 100.029 139.212 101.791 140.387C103.553 141.562 104.927 143.233 105.74 145.19C106.552 147.147 106.765 149.301 106.353 151.379C105.941 153.457 104.922 155.367 103.424 156.865C101.927 158.363 100.019 159.383 97.9418 159.795C95.8648 160.208 93.7121 159.994 91.7565 159.181C89.8008 158.369 88.1303 156.994 86.9562 155.23C85.7822 153.467 85.1575 151.395 85.1614 149.276V146.069L83.7062 144.199L82.3689 146.069V149.276C82.3728 151.395 81.7482 153.467 80.5741 155.23C79.4001 156.994 77.7295 158.369 75.7739 159.181C73.8183 159.994 71.6656 160.208 69.5885 159.795C67.5115 159.383 65.6034 158.363 64.1061 156.865C62.6088 155.367 61.5894 153.457 61.1773 151.379C60.7651 149.301 60.9786 147.147 61.7908 145.19C62.6029 143.233 63.9772 141.562 65.7395 140.387C67.5018 139.212 69.5729 138.587 71.6904 138.591C74.169 138.608 76.571 139.453 78.5144 140.992L79.9697 138.906L69.2912 124.286C64.3158 117.438 69.2912 113.798 69.2912 113.798L88.9963 140.992ZM83.6078 140.165C83.9198 140.169 84.2259 140.08 84.4872 139.91C84.7485 139.739 84.9532 139.495 85.0753 139.207C85.1974 138.92 85.2314 138.603 85.1729 138.296C85.1144 137.99 84.9662 137.707 84.747 137.485C84.5277 137.263 84.2475 137.111 83.9417 137.049C83.636 136.987 83.3187 137.017 83.0301 137.135C82.7414 137.254 82.4946 137.455 82.3208 137.715C82.147 137.974 82.0543 138.279 82.0543 138.591C82.0592 139.004 82.2239 139.398 82.5136 139.692C82.8034 139.986 83.1956 140.155 83.6078 140.165ZM95.8399 143.156C94.6247 143.153 93.4357 143.51 92.4237 144.183C91.4117 144.856 90.6222 145.815 90.1554 146.937C89.6886 148.06 89.5654 149.296 89.8015 150.489C90.0377 151.681 90.6224 152.777 91.4817 153.637C92.3409 154.497 93.436 155.082 94.6281 155.318C95.8201 155.554 97.0554 155.431 98.1773 154.964C99.2993 154.497 100.257 153.707 100.93 152.694C101.603 151.682 101.96 150.492 101.956 149.276C101.961 148.471 101.807 147.673 101.501 146.928C101.196 146.183 100.745 145.506 100.176 144.937C99.6073 144.368 98.931 143.917 98.1866 143.612C97.4422 143.306 96.6445 143.151 95.8399 143.156ZM71.6904 143.156C70.8568 143.109 70.0223 143.233 69.238 143.519C68.4537 143.806 67.7361 144.25 67.1292 144.824C66.5223 145.397 66.0388 146.089 65.7084 146.856C65.378 147.624 65.2076 148.45 65.2076 149.286C65.2076 150.121 65.378 150.948 65.7084 151.715C66.0388 152.483 66.5223 153.174 67.1292 153.748C67.7361 154.322 68.4537 154.766 69.238 155.052C70.0223 155.339 70.8568 155.463 71.6904 155.415C73.2551 155.326 74.7265 154.642 75.8029 153.502C76.8792 152.363 77.4789 150.854 77.4789 149.286C77.4789 147.718 76.8792 146.209 75.8029 145.069C74.7265 143.93 73.2551 143.245 71.6904 143.156ZM88.4849 137.666L98.3178 124.286C103.293 117.438 98.3178 113.798 98.3178 113.798L84.8468 132.472L88.4849 137.666Z" fill="#EF570D"/>
<path fill-rule="evenodd" clip-rule="evenodd" d="M121.346 30.7151L139.045 36.1066L160.5 87.4442L132.418 97.6173L126.302 69.0855L123.608 107.672L139.773 155.409H115.328C118.739 149.779 120.535 143.319 120.52 136.735C120.529 128.245 117.593 120.014 112.213 113.447C106.834 106.88 99.344 102.384 91.0215 100.726V56.8463C91.0215 56.8463 116.017 47.8145 121.307 30.7151H121.346Z" fill="#4361EE"/>
<path fill-rule="evenodd" clip-rule="evenodd" d="M45.8687 24.5758L26.2031 34.0208L0.5 103.009C9.4756 108.859 20.1537 111.527 30.8244 110.584L37.6681 65.3271V155.389H52.1814C48.7854 149.754 46.9967 143.296 47.0093 136.716C47.0107 128.118 50.0177 119.792 55.5093 113.18C61.0009 106.567 68.6311 102.085 77.0782 100.51V38.4875L45.8687 24.5758Z" fill="#EF570D"/>
<path d="M77.0791 11.097H52.084V24.5758H77.0791V11.097Z" fill="#EF570D"/>
<path fill-rule="evenodd" clip-rule="evenodd" d="M52.0835 11.097L77.0786 38.4678L67.9537 53.6192L45.8691 24.5758L52.0835 11.097Z" fill="#FF9059"/>
<path fill-rule="evenodd" clip-rule="evenodd" d="M99.1628 74.3786C133.263 47.8145 128.189 12.3366 91.0605 11.1953V24.379C112.948 25.3039 114.915 43.0526 91.0605 56.8463C100.598 57.8892 99.1628 74.3786 99.1628 74.3786Z" fill="#6D84F2"/>
<path d="M85.5184 114.472C85.4716 114.923 85.2598 115.34 84.9239 115.643C84.588 115.946 84.1519 116.114 83.6997 116.114C83.2475 116.114 82.8113 115.946 82.4755 115.643C82.1396 115.34 81.9278 114.923 81.8809 114.472V2.02187C81.8544 1.76664 81.8817 1.50869 81.961 1.2647C82.0403 1.02072 82.1699 0.796147 82.3413 0.605538C82.5128 0.414929 82.7223 0.262551 82.9563 0.158238C83.1903 0.0539257 83.4436 0 83.6997 0C83.9558 0 84.209 0.0539257 84.443 0.158238C84.677 0.262551 84.8865 0.414929 85.058 0.605538C85.2294 0.796147 85.359 1.02072 85.4384 1.2647C85.5177 1.50869 85.5449 1.76664 85.5184 2.02187V114.472Z" fill="#4361EE"/>
</svg>
