<svg width="80" height="80" viewBox="0 0 80 80" fill="none" xmlns="http://www.w3.org/2000/svg">
<rect width="80" height="80" fill="white"/>
<path fill-rule="evenodd" clip-rule="evenodd" d="M44.2479 67.8862C45.223 67.1163 46.4273 66.694 47.6697 66.6866C48.7285 66.6847 49.764 66.997 50.6452 67.584C51.5263 68.171 52.2135 69.0063 52.6195 69.9841C53.0256 70.962 53.1324 72.0383 52.9263 73.0768C52.7202 74.1154 52.2106 75.0694 51.4619 75.818C50.7132 76.5667 49.7592 77.0764 48.7207 77.2824C47.6821 77.4885 46.6058 77.3818 45.628 76.9757C44.6502 76.5696 43.8149 75.8825 43.2279 75.0013C42.6409 74.1202 42.3285 73.0846 42.3305 72.0259V70.4231L41.6028 69.489L40.9342 70.4231V72.0259C40.9362 73.0846 40.6238 74.1202 40.0368 75.0013C39.4498 75.8825 38.6145 76.5696 37.6367 76.9757C36.6589 77.3818 35.5826 77.4885 34.544 77.2824C33.5055 77.0764 32.5515 76.5667 31.8028 75.818C31.0541 75.0694 30.5445 74.1154 30.3384 73.0768C30.1323 72.0383 30.2391 70.962 30.6452 69.9841C31.0512 69.0063 31.7383 68.171 32.6195 67.584C33.5006 66.997 34.5362 66.6847 35.595 66.6866C36.8343 66.6947 38.0353 67.117 39.007 67.8862L39.7346 66.844L34.3954 59.5382C31.9077 56.1163 34.3954 54.2972 34.3954 54.2972L44.2479 67.8862ZM41.5537 67.4732C41.7097 67.4752 41.8627 67.4307 41.9934 67.3455C42.124 67.2603 42.2264 67.1381 42.2874 66.9945C42.3485 66.851 42.3654 66.6925 42.3362 66.5393C42.307 66.3861 42.2328 66.2449 42.1232 66.1339C42.0136 66.023 41.8735 65.9471 41.7206 65.9159C41.5678 65.8848 41.4091 65.8997 41.2648 65.959C41.1205 66.0182 40.997 66.119 40.9102 66.2486C40.8233 66.3781 40.7769 66.5306 40.7769 66.6866C40.7794 66.8928 40.8617 67.09 41.0066 67.2367C41.1514 67.3834 41.3476 67.4682 41.5537 67.4732ZM47.6697 68.9679C47.0621 68.9659 46.4676 69.1444 45.9616 69.4808C45.4556 69.8171 45.0609 70.2961 44.8274 70.8571C44.594 71.4181 44.5325 72.0357 44.6505 72.6318C44.7686 73.2278 45.0609 73.7753 45.4906 74.205C45.9202 74.6346 46.4678 74.927 47.0638 75.045C47.6598 75.1631 48.2774 75.1015 48.8384 74.8681C49.3994 74.6347 49.8785 74.2399 50.2148 73.7339C50.5512 73.2279 50.7297 72.6334 50.7277 72.0259C50.7303 71.6235 50.653 71.2247 50.5003 70.8525C50.3475 70.4803 50.1224 70.1422 49.8379 69.8577C49.5534 69.5732 49.2152 69.3481 48.843 69.1953C48.4708 69.0426 48.072 68.9652 47.6697 68.9679ZM35.595 68.9679C35.1781 68.9442 34.7609 69.0059 34.3687 69.1492C33.9766 69.2924 33.6178 69.5142 33.3143 69.8009C33.0109 70.0877 32.7692 70.4333 32.6039 70.8168C32.4387 71.2002 32.3535 71.6133 32.3535 72.0308C32.3535 72.4483 32.4387 72.8614 32.6039 73.2448C32.7692 73.6282 33.0109 73.9739 33.3143 74.2606C33.6178 74.5473 33.9766 74.7691 34.3687 74.9124C34.7609 75.0556 35.1781 75.1173 35.595 75.0937C36.3773 75.0493 37.113 74.7073 37.6512 74.1378C38.1894 73.5683 38.4892 72.8144 38.4892 72.0308C38.4892 71.2472 38.1894 70.4933 37.6512 69.9237C37.113 69.3542 36.3773 69.0122 35.595 68.9679ZM43.9922 66.2245L48.9086 59.5382C51.3964 56.1163 48.9086 54.2972 48.9086 54.2972L42.1731 63.6286L43.9922 66.2245Z" fill="#EF570D"/>
<path fill-rule="evenodd" clip-rule="evenodd" d="M60.4227 15.0642L69.2723 17.7584L79.9999 43.4123L65.9586 48.4959L62.9006 34.2382L61.5535 53.5204L69.6361 77.3749H57.4139C59.119 74.5616 60.0171 71.3333 60.0098 68.0436C60.0141 63.8006 58.5461 59.6876 55.8564 56.4061C53.1667 53.1246 49.4218 50.878 45.2605 50.0494V28.1222C45.2605 28.1222 57.758 23.6089 60.4031 15.0642H60.4227Z" fill="#4361EE"/>
<path fill-rule="evenodd" clip-rule="evenodd" d="M22.6844 11.9963L12.8515 16.7161L0 51.19C4.4878 54.1136 9.82687 55.4467 15.1622 54.9757L18.5841 32.3601V77.365H25.8407C24.1427 74.5491 23.2484 71.3219 23.2547 68.0337C23.2554 63.7374 24.7589 59.5768 27.5046 56.2725C30.2504 52.9682 34.0656 50.7284 38.2891 49.9413V18.9481L22.6844 11.9963Z" fill="#EF570D"/>
<path d="M38.289 5.26086H25.7915V11.9964H38.289V5.26086Z" fill="#EF570D"/>
<path fill-rule="evenodd" clip-rule="evenodd" d="M25.7915 5.26086L38.289 18.9383L33.7266 26.5096L22.6843 11.9964L25.7915 5.26086Z" fill="#FF9059"/>
<path fill-rule="evenodd" clip-rule="evenodd" d="M49.3314 36.8833C66.3815 23.609 63.8447 5.88036 45.2803 5.31006V11.8981C56.2242 12.3602 57.2075 21.2294 45.2803 28.1223C50.0492 28.6434 49.3314 36.8833 49.3314 36.8833Z" fill="#6D84F2"/>
<path d="M42.5369 59.135C42.5134 59.3599 42.4075 59.5682 42.2395 59.7196C42.0716 59.871 41.8535 59.9548 41.6273 59.9548C41.4012 59.9548 41.1831 59.871 41.0151 59.7196C40.8471 59.5682 40.7412 59.3599 40.7178 59.135V3.00915C40.7045 2.88176 40.7182 2.75301 40.7578 2.63124C40.7975 2.50946 40.8623 2.39737 40.9481 2.30224C41.0338 2.2071 41.1386 2.13104 41.2556 2.07898C41.3726 2.02692 41.4993 2 41.6273 2C41.7554 2 41.8821 2.02692 41.9991 2.07898C42.1161 2.13104 42.2209 2.2071 42.3066 2.30224C42.3924 2.39737 42.4572 2.50946 42.4968 2.63124C42.5365 2.75301 42.5501 2.88176 42.5369 3.00915V59.135Z" fill="#4361EE"/>
</svg>
