<svg width="80" height="81" viewBox="0 0 80 81" fill="none" xmlns="http://www.w3.org/2000/svg">
<rect width="80" height="80.2228" transform="translate(0 0.0893555)" fill="white"/>
<path d="M49.8181 61.0055V75.4995H14.1167V34.426C14.1167 34.0008 14.287 33.593 14.5903 33.2923C14.8935 32.9917 15.3047 32.8228 15.7336 32.8228H36.0349" fill="#4361EE"/>
<path d="M36.0348 32.8228H61.9698C62.3986 32.8228 62.8098 32.9917 63.1131 33.2923C63.4163 33.593 63.5866 34.0008 63.5866 34.426V61.0271H36.0348V32.8228Z" fill="#EF570D"/>
<path d="M1.15283 41.6445L0 40.983C3.93628 34.2212 9.59835 28.6061 16.417 24.702C23.2357 20.798 30.9707 18.7427 38.8444 18.7427C46.7182 18.7427 54.4532 20.798 61.2719 24.702C68.0905 28.6061 73.7526 34.2212 77.6889 40.983L76.5433 41.6445C72.7289 35.0738 67.2355 29.6161 60.6164 25.8212C53.9974 22.0262 46.4866 20.0281 38.8408 20.0281C31.195 20.0281 23.6842 22.0262 17.0652 25.8212C10.4462 29.6161 4.95273 35.0738 1.13833 41.6445H1.15283Z" fill="#EF570D"/>
<path d="M39.4933 19.4H38.181V14.0582H38.8481C39.6244 14.061 40.3877 13.8609 41.0612 13.478C41.7346 13.095 42.2943 12.5428 42.6839 11.8769C43.0734 11.2111 43.2791 10.4551 43.28 9.68536C43.281 8.91558 43.0773 8.15914 42.6895 7.49231C42.3016 6.82549 41.7433 6.27184 41.0709 5.8872C40.3984 5.50256 39.6356 5.30051 38.8592 5.30143C38.0829 5.30234 37.3206 5.5062 36.649 5.89243C35.9775 6.27867 35.4205 6.83363 35.0343 7.50137L33.8815 6.84713C34.3706 6.00554 35.0691 5.30222 35.9101 4.80422C36.7512 4.30623 37.7069 4.03016 38.6861 4.00233C39.6653 3.97451 40.6354 4.19586 41.5038 4.64528C42.3723 5.0947 43.1102 5.7572 43.6472 6.56964C44.1841 7.38207 44.5023 8.31735 44.5713 9.2863C44.6403 10.2553 44.4578 11.2256 44.0413 12.1048C43.6248 12.984 42.9881 13.7427 42.192 14.3087C41.3959 14.8747 40.4668 15.229 39.4933 15.3379V19.4Z" fill="#EF570D"/>
<path d="M14.0949 35.0659H4.43005V36.3823H14.0949V35.0659Z" fill="#EF570D"/>
<path d="M73.2661 35.0659H63.6012V36.3823H73.2661V35.0659Z" fill="#EF570D"/>
<path d="M19.4603 50.3291H18.1334V71.6387H19.4603V50.3291Z" fill="white"/>
<path d="M23.8831 58.4966H22.5563V71.6389H23.8831V58.4966Z" fill="white"/>
<path d="M28.2913 63.5293H26.9645V71.639H28.2913V63.5293Z" fill="white"/>
<path d="M40.8565 41.2563H39.5297V57.6915H40.8565V41.2563Z" fill="white"/>
<path d="M45.2792 47.5615H43.9524V57.6915H45.2792V47.5615Z" fill="white"/>
<path d="M49.702 51.4434H48.3751V57.691H49.702V51.4434Z" fill="white"/>
<path d="M48.1359 62.3857H40.7985V73.9896H48.1359V62.3857Z" fill="#6D84F2"/>
<path d="M61.7596 34.6274H54.4221V59.1867H61.7596V34.6274Z" fill="#F37C43"/>
<path d="M61.8756 65.2546C64.0551 65.2508 66.1446 64.3921 67.6878 62.8659C69.231 61.3397 70.1026 59.2701 70.1122 57.1089C70.1236 59.2707 70.9968 61.3403 72.5411 62.8663C74.0855 64.3923 76.1757 65.2508 78.3559 65.2546C76.1713 65.2603 74.0778 66.1233 72.5331 67.6551C70.9883 69.1869 70.1179 71.2627 70.1122 73.429C70.1083 71.2634 69.2396 69.1875 67.6959 67.6555C66.1523 66.1236 64.0596 65.2603 61.8756 65.2546Z" fill="#D5DCFB"/>
<path d="M74.0129 59.1506C74.7322 59.1469 75.4208 58.8614 75.9287 58.3564C76.4366 57.8514 76.7227 57.1678 76.7246 56.4546C76.7265 57.1678 77.0126 57.8514 77.5205 58.3564C78.0284 58.8614 78.717 59.1469 79.4363 59.1506C78.7177 59.1525 78.0291 59.4364 77.521 59.9403C77.0128 60.4441 76.7265 61.127 76.7246 61.8395C76.7227 61.127 76.4364 60.4441 75.9283 59.9403C75.4201 59.4364 74.7315 59.1525 74.0129 59.1506Z" fill="#D5DCFB"/>
<path d="M57.8733 70.6754C58.6861 70.6735 59.4651 70.3525 60.0398 69.7826C60.6146 69.2127 60.9383 68.4403 60.9402 67.6343C60.9422 68.4403 61.2659 69.2127 61.8406 69.7826C62.4154 70.3525 63.1944 70.6735 64.0072 70.6754C63.1944 70.6773 62.4154 70.9983 61.8406 71.5683C61.2659 72.1382 60.9422 72.9106 60.9402 73.7166C60.9383 72.9106 60.6146 72.1382 60.0398 71.5683C59.4651 70.9983 58.6861 70.6773 57.8733 70.6754Z" fill="#D5DCFB"/>
</svg>
