<svg width="32" height="32" viewBox="0 0 32 32" fill="none" xmlns="http://www.w3.org/2000/svg">
<g id="Frame 8998">
<rect width="32" height="32" fill="white"/>
<g id="Group">
<path id="Vector" d="M8.21427 31.0001C9.77449 31.0001 11.0454 29.7334 11.0454 28.1783C11.0454 26.6232 9.77449 25.3564 8.21427 25.3564C6.68505 25.3564 5.40381 26.6232 5.40381 28.1783C5.40381 29.7231 6.68505 31.0001 8.21427 31.0001Z" fill="#4361EE"/>
<path id="Vector_2" d="M23.1348 31.0001C24.6951 31.0001 25.966 29.7334 25.966 28.1783C25.966 26.6232 24.6951 25.3564 23.1348 25.3564C21.5746 25.3564 20.3037 26.6232 20.3037 28.1783C20.3037 29.7231 21.5746 31.0001 23.1348 31.0001Z" fill="#4361EE"/>
<g id="Group_2">
<g id="Group_3">
<path id="Vector_3" d="M23.1345 17.4264C18.5881 17.4264 14.8994 13.7394 14.8994 9.21833C14.8994 4.69722 18.5881 1 23.1345 1C24.2297 1 25.3043 1.21627 26.3066 1.62822C26.7509 1.81359 26.9575 2.31823 26.7715 2.76107C26.5856 3.20391 26.0793 3.40989 25.635 3.22451C24.8394 2.89495 24.0024 2.73018 23.1345 2.73018C19.5491 2.73018 16.6353 5.6344 16.6353 9.20803C16.6353 12.7817 19.5491 15.6859 23.1345 15.6859C26.7199 15.6859 29.6337 12.7817 29.6337 9.20803C29.6337 8.73429 30.0263 8.34295 30.5016 8.34295C30.9769 8.34295 31.3695 8.73429 31.3695 9.20803C31.3695 13.7394 27.6705 17.4264 23.1345 17.4264Z" fill="#4361EE"/>
</g>
<g id="Group_4">
<path id="Vector_4" d="M23.4446 11.9578C23.4136 11.9578 23.3929 11.9578 23.3619 11.9578C22.7936 11.9372 22.2667 11.6695 21.905 11.2369L19.3529 8.31212C18.9292 7.82808 18.9809 7.09688 19.4665 6.68493C19.9522 6.26269 20.6858 6.31418 21.0991 6.79822L23.4446 9.48617L29.9748 2.20501C30.3984 1.73127 31.132 1.69008 31.6073 2.11232C32.0826 2.53457 32.1239 3.26577 31.7003 3.73951L24.9015 11.3193C24.4985 11.7416 23.9819 11.9578 23.4446 11.9578ZM23.6616 9.74363C23.6719 9.74363 23.6719 9.74363 23.6616 9.74363V9.74363Z" fill="#EF570D"/>
</g>
</g>
<g id="Group_5">
<path id="Vector_5" d="M23.052 19.486C17.6377 19.486 13.1947 15.3047 12.7814 10.0112H12.7504C11.1592 10.0112 9.85728 11.3089 9.85728 12.8949L8.50371 17.8485H2.89312C1.30191 17.8485 0 19.177 0 20.7321V26.5818H3.98838C4.629 24.8825 6.27188 23.6673 8.2144 23.6673C10.1776 23.6673 11.8308 24.8825 12.4611 26.5818H18.8776C19.5389 24.8825 21.1921 23.6673 23.1243 23.6673C25.0668 23.6673 26.7097 24.8825 27.3503 26.5818H30.7291V16.0359C28.8486 18.1472 26.1104 19.486 23.052 19.486Z" fill="#EF570D"/>
</g>
</g>
</g>
</svg>
