<svg width="80" height="80" viewBox="0 0 80 80" fill="none" xmlns="http://www.w3.org/2000/svg">
<path d="M51.1504 33.3135C53.2297 32.9256 54.6009 30.9255 54.2129 28.8462C53.825 26.7669 51.8249 25.3958 49.7456 25.7837C47.6663 26.1717 46.2952 28.1717 46.6831 30.251C47.0711 32.3303 49.0712 33.7014 51.1504 33.3135Z" fill="#EF570D"/>
<path d="M79.2769 -1.61839e-05L50.5757 28.7012L51.2899 29.4153L79.991 0.714155L79.2769 -1.61839e-05Z" fill="#EF570D"/>
<path d="M36.66 69.4971L34.25 68.7071L35.74 66.6571C36.39 65.7571 36.19 64.4871 35.29 63.8371L33.24 62.3471L35.29 60.8571C36.19 60.1971 36.39 58.9371 35.74 58.0371L34.25 55.9871L36.66 55.1971C37.72 54.8471 38.3 53.7071 37.96 52.6471L37.18 50.2371H39.72C40.84 50.2371 41.74 49.3271 41.74 48.2171V45.6771L44.15 46.4571C45.21 46.7971 46.35 46.2171 46.7 45.1571L47.49 42.7471L49.54 44.2371C50.44 44.8871 51.71 44.6871 52.36 43.7871L53.85 41.7371L55.34 43.7871C56 44.6871 57.26 44.8871 58.16 44.2371L60.21 42.7471L61 45.1571C61.26 45.9471 61.95 46.4671 62.73 46.5371L67.9 41.3671L66.26 17.2571L57.03 26.4871C58.29 29.1771 57.81 32.4771 55.59 34.7071C52.75 37.5471 48.14 37.5471 45.3 34.7071C42.46 31.8671 42.46 27.2571 45.3 24.4171C47.52 22.1971 50.82 21.7171 53.52 22.9771L63.66 12.8371L38.65 12.0971L0 50.7271L29.27 79.9971L38.05 71.2171C37.97 70.4471 37.45 69.7471 36.66 69.4971Z" fill="#4361EE"/>
<path d="M53.8601 45.0371L55.1101 46.7571C55.6601 47.5171 56.7201 47.6771 57.4801 47.1371L59.2001 45.8871L59.8601 47.9071C60.1601 48.7971 61.1101 49.2871 62.0001 48.9971L64.0201 48.3471V50.4771C64.0201 51.4171 64.7801 52.1671 65.7201 52.1771H67.8501L67.2001 54.1971C66.9101 55.0871 67.4001 56.0471 68.2901 56.3371L70.3101 56.9971L69.0601 58.7171C68.5101 59.4771 68.6801 60.5371 69.4401 61.0871L71.1601 62.3371L69.4401 63.5871C68.6801 64.1371 68.5201 65.1971 69.0601 65.9571L70.3101 67.6771L68.2901 68.3371C67.4001 68.6271 66.9101 69.5871 67.2001 70.4771L67.8501 72.4971H65.7201C64.7801 72.4971 64.0301 73.2571 64.0201 74.1971V76.3271L62.0001 75.6771C61.1101 75.3871 60.1501 75.8771 59.8601 76.7671L59.2001 78.7871L57.4801 77.5371C56.7201 76.9871 55.6601 77.1571 55.1101 77.9171L53.8601 79.6371L52.6101 77.9171C52.0601 77.1571 51.0001 76.9971 50.2401 77.5371L48.5201 78.7871L47.8601 76.7671C47.5701 75.8771 46.6101 75.3871 45.7201 75.6771L43.7001 76.3271V74.1971C43.7001 73.2571 42.9401 72.5071 42.0001 72.4971H39.8701L40.5201 70.4771C40.8101 69.5871 40.3201 68.6271 39.4301 68.3371L37.4101 67.6771L38.6601 65.9571C39.2101 65.1971 39.0401 64.1371 38.2801 63.5871L36.5601 62.3371L38.2801 61.0871C39.0401 60.5371 39.2001 59.4771 38.6601 58.7171L37.4101 56.9971L39.4301 56.3371C40.3201 56.0471 40.8101 55.0871 40.5201 54.1971L39.8701 52.1771H42.0001C42.9401 52.1771 43.6901 51.4171 43.7001 50.4771V48.3471L45.7201 48.9971C46.6101 49.2871 47.5701 48.7971 47.8601 47.9071L48.5201 45.8871L50.2401 47.1371C51.0001 47.6871 52.0601 47.5171 52.6101 46.7571L53.8601 45.0371Z" fill="#FF9059"/>
<path d="M49.26 63.2471C48.52 63.2471 47.87 63.0671 47.3 62.7171C46.73 62.3671 46.29 61.8971 45.96 61.2971C45.64 60.7071 45.48 60.0371 45.48 59.3071C45.48 58.5671 45.64 57.8971 45.96 57.2971C46.28 56.7071 46.73 56.2271 47.3 55.8771C47.87 55.5271 48.52 55.3471 49.26 55.3471C50.01 55.3471 50.67 55.5271 51.23 55.8771C51.79 56.2271 52.23 56.6971 52.54 57.2971C52.86 57.8871 53.01 58.5571 53.01 59.3071C53.01 60.0371 52.84 60.6971 52.5 61.2971C52.16 61.8971 51.71 62.3671 51.15 62.7171C50.6 63.0671 49.97 63.2471 49.26 63.2471ZM49.26 61.4371C49.72 61.4371 50.08 61.2371 50.33 60.8271C50.58 60.4271 50.71 59.9171 50.71 59.3071C50.71 58.6971 50.59 58.1871 50.34 57.7871C50.09 57.3771 49.73 57.1771 49.25 57.1771C48.79 57.1771 48.43 57.3771 48.16 57.7871C47.9 58.1871 47.77 58.6971 47.77 59.3071C47.77 59.9171 47.9 60.4271 48.15 60.8271C48.42 61.2371 48.78 61.4371 49.26 61.4371ZM49.54 69.7671C49.29 69.7671 49.03 69.6771 48.75 69.4971C48.47 69.3171 48.33 69.0771 48.33 68.7771C48.33 68.5971 48.41 68.3971 48.56 68.1671L57.75 55.9871C58.03 55.6671 58.34 55.4971 58.7 55.4971C58.96 55.4971 59.23 55.5871 59.5 55.7571C59.77 55.9371 59.9 56.1771 59.9 56.4871C59.9 56.6671 59.82 56.8671 59.67 57.0971L50.48 69.2771C50.21 69.6071 49.89 69.7671 49.54 69.7671ZM59.16 69.9271C58.45 69.9271 57.81 69.7471 57.24 69.3971C56.67 69.0471 56.22 68.5771 55.88 67.9771C55.54 67.3871 55.37 66.7171 55.37 65.9871C55.37 65.2471 55.53 64.5771 55.85 63.9771C56.17 63.3871 56.62 62.9071 57.19 62.5571C57.76 62.2071 58.41 62.0271 59.15 62.0271C59.9 62.0271 60.56 62.2071 61.12 62.5571C61.68 62.9071 62.12 63.3771 62.44 63.9771C62.76 64.5671 62.91 65.2371 62.91 65.9871C62.91 66.7171 62.74 67.3771 62.4 67.9771C62.06 68.5771 61.61 69.0471 61.05 69.3971C60.51 69.7571 59.87 69.9271 59.16 69.9271ZM59.16 68.1271C59.62 68.1271 59.98 67.9271 60.23 67.5171C60.48 67.1171 60.61 66.6071 60.61 65.9971C60.61 65.3871 60.49 64.8871 60.24 64.4771C59.99 64.0671 59.63 63.8671 59.15 63.8671C58.69 63.8671 58.33 64.0671 58.06 64.4771C57.8 64.8771 57.67 65.3871 57.67 65.9971C57.67 66.6071 57.8 67.1171 58.05 67.5171C58.32 67.9271 58.69 68.1271 59.16 68.1271Z" fill="#EF570D"/>
<path d="M16.2099 57.6871L8.66992 50.3171L11.5899 47.3171L16.1199 51.7471L28.4099 39.0371L31.4199 41.9471L16.2099 57.6871Z" fill="#6D84F2"/>
</svg>
