<svg width="32" height="32" viewBox="0 0 32 32" fill="none" xmlns="http://www.w3.org/2000/svg">
<g id="Frame" clip-path="url(#clip0_1928_1254)">
<g id="Group">
<g id="Group_2">
<path id="Vector" d="M16 32C7.17687 32 0 24.8231 0 16C0 7.17687 7.17687 0 16 0C24.8231 0 32 7.17687 32 16C32 24.8231 24.8231 32 16 32ZM16 3.22798C8.95225 3.22798 3.22798 8.95225 3.22798 16C3.22798 23.0477 8.95225 28.772 16 28.772C23.0477 28.772 28.772 23.037 28.772 16C28.772 8.96301 23.037 3.22798 16 3.22798Z" fill="#4361EE"/>
</g>
<g id="Group_3">
<path id="Vector_2" d="M24.3385 20.1748C24.9733 18.9159 25.3284 17.5064 25.3284 16C25.3284 10.846 21.1536 6.67114 15.9996 6.67114C14.4932 6.67114 13.0836 7.03698 11.8247 7.66106L24.3385 20.1748Z" fill="#EF570D"/>
<path id="Vector_3" d="M8.51086 10.437C7.34879 11.9864 6.66016 13.9125 6.66016 15.9999C6.66016 21.1539 10.835 25.3287 15.989 25.3287C18.0764 25.3287 19.9917 24.6401 21.5519 23.478L8.51086 10.437Z" fill="#EF570D"/>
</g>
</g>
</g>
<defs>
<clipPath id="clip0_1928_1254">
<rect width="32" height="32" fill="white"/>
</clipPath>
</defs>
</svg>
