<svg width="78" height="80" viewBox="0 0 78 80" fill="none" xmlns="http://www.w3.org/2000/svg">
<path d="M49.2022 6.55271C49.2051 5.99093 49.0975 5.43411 48.8856 4.91432C48.6737 4.39454 48.3617 3.92205 47.9675 3.52406C47.5737 3.12352 47.1048 2.80554 46.588 2.58852C46.0712 2.3715 45.5167 2.25974 44.9567 2.25974C44.3967 2.25974 43.8422 2.3715 43.3254 2.58852C42.8086 2.80554 42.3397 3.12352 41.9459 3.52406C41.5474 3.92114 41.231 4.39372 41.0151 4.91449C40.7993 5.43527 40.6881 5.99392 40.6881 6.55816C40.6881 7.1224 40.7993 7.68106 41.0151 8.20183C41.231 8.72261 41.5474 9.19518 41.9459 9.59226C42.3392 9.9927 42.8082 10.3099 43.3253 10.525C43.8424 10.7402 44.3971 10.849 44.9567 10.8451H46.0397V15.3554H43.787V13.0022C42.4709 12.7731 41.257 12.1416 40.3105 11.1937C39.7031 10.5863 39.221 9.86397 38.8921 9.06842C38.5631 8.27287 38.3938 7.41978 38.3938 6.55816C38.3938 5.69655 38.5631 4.84342 38.8921 4.04787C39.221 3.25232 39.7031 2.53006 40.3105 1.92258C40.9142 1.31319 41.6316 0.829689 42.4214 0.499771C43.2113 0.169853 44.0581 0 44.9134 0C45.7686 0 46.6155 0.169853 47.4053 0.499771C48.1952 0.829689 48.9126 1.31319 49.5163 1.92258C50.1231 2.52939 50.6048 3.25078 50.9338 4.04534C51.2627 4.83991 51.4325 5.69199 51.4332 6.55271H49.2022Z" fill="#EF570D"/>
<path fill-rule="evenodd" clip-rule="evenodd" d="M45.0001 54.2811L38.8268 20.9224L28.5922 23.7332C25.7474 37.097 22.9026 50.4717 20.0579 63.8573C23.307 64.5655 24.7691 65.5895 27.7149 64.2277C28.9062 56.2893 30.0832 48.351 31.2456 40.4126C30.5236 50.4282 29.7727 60.4437 28.9929 70.4593C40.8196 73.5316 49.2023 73.5316 61.0073 70.4593C60.2853 60.451 59.5344 50.4354 58.7546 40.4126C59.9243 48.3292 61.0976 56.2676 62.2745 64.2277C65.2312 65.5895 66.6932 64.5655 69.9423 63.8573C67.0976 50.4935 64.2528 37.1188 61.4081 23.7332L51.1734 20.9224L45.0001 54.2484V54.2811Z" fill="#4361EE"/>
<path fill-rule="evenodd" clip-rule="evenodd" d="M45 45.2388L47.7618 28.1345L45.3358 25.6942L47.7618 22.8725L45 20.6065L42.2383 22.8725L44.6643 25.6942L42.2383 28.1345L45 45.2388Z" fill="#EF570D"/>
<path d="M12.1192 70.3831C16.4514 53.6275 19.3972 36.861 23.686 20.0945L44.9351 14.1788L66.4225 20.0945L77.9784 70.3831C53.9676 82.1491 34.9279 81.5717 12.1084 70.3831H12.1192ZM14.751 69.1085C24.1788 73.8026 34.5564 76.2446 45.0759 76.2446C55.5954 76.2446 65.973 73.8026 75.4008 69.1085L64.5705 21.9357L44.9351 16.4884L25.538 21.9357L14.751 69.1085Z" fill="#FF9059"/>
<path fill-rule="evenodd" clip-rule="evenodd" d="M53.5777 30.4333L57.0542 32.013H51.769L53.5777 30.4333Z" fill="#6D84F2"/>
<path fill-rule="evenodd" clip-rule="evenodd" d="M36.0435 58.9222L36.5959 55.3597L31.7764 63.999L36.0435 58.9222Z" fill="#6D84F2"/>
<path fill-rule="evenodd" clip-rule="evenodd" d="M53.9569 58.9222L53.4045 55.3597L58.224 63.999L53.9569 58.9222Z" fill="#6D84F2"/>
<path d="M63.2059 15.8129C65.1161 15.8072 66.9464 15.0405 68.2961 13.6808C69.6458 12.321 70.4052 10.4788 70.4081 8.55725C70.4109 10.4807 71.1718 12.3245 72.5239 13.6846C73.8759 15.0447 75.7089 15.8101 77.6211 15.8129C76.6706 15.8129 75.7295 16.0016 74.8516 16.3682C73.9738 16.7347 73.1764 17.2719 72.5054 17.949C71.8343 18.626 71.3026 19.4297 70.9409 20.3138C70.5791 21.1979 70.3944 22.1452 70.3972 23.1013C70.3915 21.1816 69.6309 19.3422 68.2814 17.9848C66.932 16.6274 65.1034 15.8623 63.1951 15.8565L63.2059 15.8129Z" fill="#6D84F2"/>
<path d="M0 73.7495C1.91025 73.7466 3.7416 72.9828 5.09337 71.625C6.44514 70.2673 7.20727 68.4263 7.213 66.5047C7.21871 68.4244 7.97933 70.2638 9.32876 71.6212C10.6782 72.9786 12.5068 73.7437 14.4152 73.7495C12.5049 73.7552 10.6747 74.5219 9.32496 75.8817C7.97522 77.2414 7.21586 79.0836 7.213 81.0052C7.21014 79.0817 6.44929 77.2379 5.09721 75.8778C3.74513 74.5177 1.91213 73.7524 0 73.7495Z" fill="#6D84F2"/>
<path d="M6.38989 61.6349C7.17505 61.632 7.92709 61.3162 8.48126 60.7567C9.03544 60.1972 9.34659 59.4396 9.34658 58.6498C9.34658 59.4415 9.65922 60.2008 10.2157 60.7606C10.7723 61.3204 11.527 61.6349 12.3141 61.6349C11.527 61.6349 10.7723 61.9494 10.2157 62.5092C9.65922 63.069 9.34658 63.8283 9.34658 64.62C9.34659 63.8302 9.03544 63.0726 8.48126 62.5131C7.92709 61.9536 7.17505 61.6378 6.38989 61.6349Z" fill="#6D84F2"/>
<path d="M13.9387 77.3773C14.7258 77.3773 15.4805 77.0628 16.0371 76.503C16.5936 75.9432 16.9062 75.1839 16.9062 74.3922C16.9062 75.1839 17.2189 75.9432 17.7754 76.503C18.3319 77.0628 19.0867 77.3773 19.8738 77.3773C19.0867 77.3773 18.3319 77.6918 17.7754 78.2516C17.2189 78.8114 16.9062 79.5707 16.9062 80.3624C16.9062 79.5707 16.5936 78.8114 16.0371 78.2516C15.4805 77.6918 14.7258 77.3773 13.9387 77.3773Z" fill="#6D84F2"/>
</svg>
