<svg width="156" height="156" viewBox="0 0 156 156" fill="none" xmlns="http://www.w3.org/2000/svg">
<path d="M98.0847 12.6192C98.0903 11.5373 97.8833 10.465 97.4757 9.46402C97.068 8.46302 96.4677 7.5531 95.7093 6.78665C94.9516 6.01529 94.0495 5.40292 93.0551 4.98498C92.0608 4.56705 90.994 4.35182 89.9165 4.35182C88.839 4.35182 87.7722 4.56705 86.7779 4.98498C85.7835 5.40292 84.8814 6.01529 84.1237 6.78665C83.357 7.55134 82.7484 8.46143 82.333 9.46434C81.9176 10.4673 81.7038 11.5431 81.7038 12.6297C81.7038 13.7163 81.9176 14.7922 82.333 15.7951C82.7484 16.798 83.357 17.7081 84.1237 18.4728C84.8804 19.244 85.7828 19.8548 86.7777 20.2692C87.7726 20.6835 88.8399 20.8931 89.9165 20.8856H92.0002V29.5715H87.666V25.0397C85.1339 24.5985 82.7984 23.3824 80.9772 21.5569C79.8085 20.3871 78.8811 18.9961 78.2482 17.464C77.6153 15.9319 77.2896 14.289 77.2896 12.6297C77.2896 10.9704 77.6153 9.32747 78.2482 7.7954C78.8811 6.26334 79.8085 4.87239 80.9772 3.70251C82.1388 2.52895 83.519 1.59782 85.0386 0.96246C86.5583 0.327103 88.1876 0 89.8331 0C91.4786 0 93.1079 0.327103 94.6276 0.96246C96.1473 1.59782 97.5275 2.52895 98.689 3.70251C99.8566 4.8711 100.783 6.26037 101.416 7.79054C102.049 9.32071 102.376 10.9617 102.377 12.6192H98.0847Z" fill="#EF570D"/>
<path fill-rule="evenodd" clip-rule="evenodd" d="M90.0002 104.535L78.123 40.2925L58.4316 45.7055C52.9583 71.4415 47.485 97.1986 42.0117 122.977C48.2629 124.34 51.076 126.313 56.7438 123.69C59.0359 108.402 61.3002 93.1145 63.5368 77.8267C62.1476 97.1147 60.7029 116.403 59.2026 135.691C81.957 141.607 98.0851 141.607 120.798 135.691C119.409 116.417 117.964 97.1287 116.464 77.8267C118.714 93.0725 120.972 108.36 123.236 123.69C128.925 126.313 131.738 124.34 137.989 122.977C132.515 97.2406 127.042 71.4835 121.569 45.7055L101.878 40.2925L90.0002 104.472V104.535Z" fill="#4361EE"/>
<path fill-rule="evenodd" clip-rule="evenodd" d="M90.0001 87.121L95.3136 54.1816L90.646 49.482L95.3136 44.048L90.0001 39.6841L84.6865 44.048L89.3541 49.482L84.6865 54.1816L90.0001 87.121Z" fill="#EF570D"/>
<path d="M26.7381 135.544C35.0731 103.276 40.7409 70.987 48.9925 38.698L89.8754 27.3056L131.217 38.698L153.45 135.544C107.254 158.203 70.6217 157.091 26.7173 135.544H26.7381ZM31.8016 133.089C49.9406 142.129 69.907 146.832 90.1463 146.832C110.386 146.832 130.352 142.129 148.491 133.089L127.654 42.2437L89.8754 31.7534L52.5556 42.2437L31.8016 133.089Z" fill="#FF9059"/>
<path fill-rule="evenodd" clip-rule="evenodd" d="M106.503 58.6085L113.192 61.6507H103.023L106.503 58.6085Z" fill="#6D84F2"/>
<path fill-rule="evenodd" clip-rule="evenodd" d="M72.7685 113.473L73.8312 106.612L64.5586 123.249L72.7685 113.473Z" fill="#6D84F2"/>
<path fill-rule="evenodd" clip-rule="evenodd" d="M107.233 113.473L106.17 106.612L115.443 123.249L107.233 113.473Z" fill="#6D84F2"/>
<path d="M128.265 30.4527C131.941 30.4416 135.462 28.9652 138.059 26.3465C140.656 23.7279 142.117 20.1802 142.122 16.4796C142.128 20.1838 143.592 23.7347 146.193 26.354C148.794 28.9732 152.321 30.4471 156 30.4527C154.171 30.4527 152.361 30.816 150.672 31.5219C148.983 32.2278 147.449 33.2623 146.157 34.5662C144.866 35.8701 143.843 37.4178 143.147 39.1204C142.451 40.8231 142.096 42.6474 142.101 44.4886C142.09 40.7917 140.627 37.2494 138.031 34.6353C135.434 32.0211 131.916 30.5477 128.245 30.5366L128.265 30.4527Z" fill="#6D84F2"/>
<path d="M0 142.027C3.6753 142.021 7.19879 140.55 9.79958 137.936C12.4004 135.321 13.8667 131.775 13.8777 128.075C13.8887 131.772 15.3521 135.314 17.9484 137.928C20.5447 140.542 24.0629 142.016 27.7346 142.027C24.0593 142.038 20.538 143.514 17.9411 146.133C15.3442 148.752 13.8832 152.299 13.8777 156C13.8722 152.296 12.4083 148.745 9.80695 146.126C7.20557 143.507 3.6789 142.033 0 142.027Z" fill="#6D84F2"/>
<path d="M12.2935 118.697C13.8041 118.691 15.251 118.083 16.3172 117.006C17.3834 115.928 17.9821 114.469 17.9821 112.948C17.9821 114.473 18.5836 115.935 19.6543 117.013C20.7251 118.091 22.1773 118.697 23.6915 118.697C22.1773 118.697 20.7251 119.302 19.6543 120.38C18.5836 121.458 17.9821 122.921 17.9821 124.445C17.9821 122.924 17.3834 121.465 16.3172 120.388C15.251 119.31 13.8041 118.702 12.2935 118.697Z" fill="#6D84F2"/>
<path d="M26.8174 149.014C28.3316 149.014 29.7838 148.408 30.8546 147.33C31.9253 146.252 32.5268 144.789 32.5268 143.265C32.5268 144.789 33.1284 146.252 34.1991 147.33C35.2698 148.408 36.7221 149.014 38.2363 149.014C36.7221 149.014 35.2698 149.619 34.1991 150.697C33.1284 151.775 32.5268 153.238 32.5268 154.762C32.5268 153.238 31.9253 151.775 30.8546 150.697C29.7838 149.619 28.3316 149.014 26.8174 149.014Z" fill="#6D84F2"/>
</svg>
