<svg width="34" height="35" viewBox="0 0 34 35" fill="none" xmlns="http://www.w3.org/2000/svg">
<path d="M34 17.8938C34 16.7417 33.8987 15.6479 33.725 14.5833H17.3691V21.1604H26.734C26.3142 23.3188 25.0839 25.1417 23.2602 26.3813V30.7563H28.8472C32.1184 27.7083 34 23.2167 34 17.8938Z" fill="#4285F4"/>
<path d="M17.3691 35C22.0588 35 25.9813 33.425 28.8472 30.7562L23.2601 26.3812C21.6969 27.4312 19.7139 28.0729 17.3691 28.0729C12.8387 28.0729 9.00299 24.9958 7.62794 20.8396H1.86719V25.3458C4.71861 31.0625 10.5807 35 17.3691 35Z" fill="#34A853"/>
<path d="M7.62793 20.8396C7.26607 19.7896 7.07791 18.6667 7.07791 17.5C7.07791 16.3333 7.28055 15.2104 7.62793 14.1604V9.65417H1.86718C0.680288 12.0167 0 14.6708 0 17.5C0 20.3292 0.680288 22.9833 1.86718 25.3458L7.62793 20.8396Z" fill="#FBBC05"/>
<path d="M17.3691 6.92708C19.931 6.92708 22.218 7.81667 24.0273 9.55209L28.9775 4.56458C25.9813 1.73542 22.0588 0 17.3691 0C10.5807 0 4.71861 3.9375 1.86719 9.65417L7.62794 14.1604C9.00299 10.0042 12.8387 6.92708 17.3691 6.92708Z" fill="#EA4335"/>
</svg>
