<svg width="80" height="80" viewBox="0 0 80 80" fill="none" xmlns="http://www.w3.org/2000/svg">
<rect width="80" height="80" fill="white"/>
<path d="M10.5679 37.3915H66.5999C68.1724 37.3915 69.4555 36.127 69.4555 34.5832V19.6574C69.4555 18.1136 68.1802 16.8491 66.5999 16.8491H31.2845C19.8935 16.8491 10.5679 26.0963 10.5679 37.3915Z" fill="#4361EE"/>
<path d="M69.4555 19.6572H67.2023V4.94866C67.2023 4.00222 66.4356 3.23421 65.4968 3.23421H42.1827V1H65.489C67.6717 1 69.4477 2.76875 69.4477 4.94866V19.6572H69.4555Z" fill="#4361EE"/>
<path fill-rule="evenodd" clip-rule="evenodd" d="M50.4835 7.98193H61.0844C62.4926 7.98193 63.6583 9.12231 63.6583 10.5342C63.6583 11.9461 62.4848 13.1098 61.0844 13.1098H50.4835C49.0596 13.1098 47.8861 11.9461 47.8861 10.5342C47.8861 9.12231 49.0596 7.98193 50.4835 7.98193Z" fill="#6D84F2"/>
<path d="M46.9942 31.3711H14.3389V32.8458H46.9942V31.3711Z" fill="white"/>
<path d="M57.0631 31.3711H52.1265V32.8458H57.0631V31.3711Z" fill="white"/>
<path d="M65.9818 31.3711H61.0452V32.8458H65.9818V31.3711Z" fill="white"/>
<path d="M21.76 45.0037L20.2812 46.6895L58.2365 79.427L59.7153 77.7412L21.76 45.0037Z" fill="#EF570D"/>
<path d="M58.2319 45.0063L20.2766 77.7388L21.7551 79.4245L59.7104 46.692L58.2319 45.0063Z" fill="#EF570D"/>
<path d="M5.48262 41.3867H74.5173C76.1759 41.3867 77.5215 42.7366 77.5215 44.3657C77.5215 46.0103 76.1837 47.3446 74.5173 47.3446H5.48262C3.83969 47.3446 2.47839 46.0181 2.47839 44.3657C2.47839 42.7366 3.84751 41.3867 5.48262 41.3867Z" fill="#EF570D"/>
</svg>
