<svg width="135" height="135" viewBox="0 0 135 135" fill="none" xmlns="http://www.w3.org/2000/svg">
<path d="M101.433 6.09051L117.338 58.8689C118.086 61.3573 116.224 63.8631 113.631 63.8631H12.5986C16.7402 49.4374 32.819 29.826 68.3527 29.826H93.7935C96.3689 29.826 98.2309 27.3376 97.5 24.8666L94.2807 13.8515C93.7935 12.1984 92.2796 11.0673 90.5742 11.0673H82.0476C79.9072 11.0673 78.1845 9.32716 78.1845 7.20419C78.1845 5.06382 79.9246 3.34109 82.0476 3.34109H97.7262C99.4315 3.34109 100.928 4.45478 101.433 6.09051Z" fill="#4361EE"/>
<path d="M41.3107 0H79.4023C83.3524 0 86.6065 3.25406 86.6065 7.20417C86.6065 11.1543 83.3524 14.4083 79.4023 14.4083H41.3107C37.3606 14.4083 34.1065 11.1543 34.1065 7.20417C34.0891 3.25406 37.3432 0 41.3107 0Z" fill="#6D84F2"/>
<path d="M98.9603 53.6659C101.518 53.6659 103.624 51.6473 103.624 49.0893C103.624 46.5313 101.518 44.4257 98.9603 44.4257C96.4894 44.4257 94.3838 46.5313 94.3838 49.0893C94.3838 51.6473 96.5068 53.6659 98.9603 53.6659Z" fill="white"/>
<path d="M82.6918 53.6659C85.2498 53.6659 87.2684 51.6473 87.2684 49.0893C87.2684 46.5313 85.2498 44.4257 82.6918 44.4257C80.1338 44.4257 78.1152 46.5313 78.1152 49.0893C78.1152 51.6473 80.1512 53.6659 82.6918 53.6659Z" fill="white"/>
<path d="M66.4203 53.6659C68.9783 53.6659 70.9969 51.6473 70.9969 49.0893C70.9969 46.5313 68.9783 44.4257 66.4203 44.4257C63.8623 44.4257 61.8438 46.5313 61.8438 49.0893C61.8438 51.6473 63.8797 53.6659 66.4203 53.6659Z" fill="white"/>
<path d="M8.64844 74.6868L10.928 69.4141H120.609L122.105 74.6868H8.64844Z" fill="#6D84F2"/>
<path d="M3.46217 102.181C5.55353 104.252 8.54119 105.522 11.7573 105.522H119.84C120.719 105.522 121.527 105.922 122.09 106.479C122.652 107.036 122.968 107.836 122.968 108.706C122.968 109.054 122.898 109.385 122.81 109.698H131.457L131.492 109.42V108.706C131.492 105.522 130.209 102.564 128.118 100.493C125.939 98.4222 123.039 97.0649 119.823 97.0649H11.7573C10.8786 97.0649 10.0702 96.7517 9.50778 96.1949C8.85753 95.638 8.52361 94.8376 8.52361 93.9675C8.52361 93.0974 8.83995 92.297 9.49021 91.7401C10.0526 91.1833 10.861 90.783 11.7397 90.783H128.997C131.773 90.783 133.812 88.1902 133.127 85.5278C132.652 83.6485 130.947 82.3434 128.997 82.3434H11.7573C8.45331 82.3434 5.55353 83.7007 3.46217 85.7714C1.28294 87.8248 0 90.783 0 93.9675C0 97.1519 1.28294 100.023 3.46217 102.094V102.181Z" fill="#EF570D"/>
<path d="M11.7573 111.821H119.84C120.719 111.821 121.527 111.508 122.09 110.951C122.512 110.534 122.793 109.977 122.916 109.35H131.51V109.437L131.246 111.317C131.211 111.56 131.158 111.787 131.088 112.03C130.508 113.892 129.506 115.597 128.135 116.937V116.85C125.956 119.008 123.056 120.278 119.84 120.278H11.7573C10.8786 120.278 10.0702 120.679 9.50778 121.235C8.85753 121.792 8.54119 122.593 8.54119 123.463C8.54119 124.333 8.85753 125.133 9.50778 125.69C10.0702 126.247 10.8786 126.56 11.7573 126.56H130.736C132.687 126.56 134.392 127.883 134.866 129.745C135.552 132.407 133.513 135 130.736 135H11.7573C8.54119 135 5.55353 133.73 3.46217 131.572V131.659C1.28294 129.501 0 126.647 0 123.445C0 120.261 1.28294 117.303 3.46217 115.232C5.55353 113.179 8.52361 111.821 11.7573 111.821Z" fill="#FF9059"/>
</svg>
