<svg width="80" height="80" viewBox="0 0 80 80" fill="none" xmlns="http://www.w3.org/2000/svg">
<path d="M60.1083 3.60921L69.5334 34.8853C69.9768 36.3599 68.8734 37.8448 67.3369 37.8448H7.46582C9.92006 29.2962 19.4483 17.6747 40.5053 17.6747H55.5813C57.1075 17.6747 58.2109 16.2001 57.7778 14.7358L55.8701 8.20833C55.5813 7.22869 54.6842 6.55842 53.6736 6.55842H48.6208C47.3524 6.55842 46.3315 5.52722 46.3315 4.26917C46.3315 3.0008 47.3627 1.97992 48.6208 1.97992H57.9118C58.9224 1.97992 59.8092 2.63988 60.1083 3.60921Z" fill="#4361EE"/>
<path d="M24.4804 0H47.0532C49.394 0 51.3223 1.92833 51.3223 4.26914C51.3223 6.60995 49.394 8.53828 47.0532 8.53828H24.4804C22.1396 8.53828 20.2112 6.60995 20.2112 4.26914C20.2009 1.92833 22.1292 0 24.4804 0Z" fill="#6D84F2"/>
<path d="M58.6439 31.802C60.1598 31.802 61.4075 30.6058 61.4075 29.09C61.4075 27.5741 60.1598 26.3264 58.6439 26.3264C57.1796 26.3264 55.9319 27.5741 55.9319 29.09C55.9319 30.6058 57.1899 31.802 58.6439 31.802Z" fill="white"/>
<path d="M49.0023 31.802C50.5182 31.802 51.7144 30.6058 51.7144 29.09C51.7144 27.5741 50.5182 26.3264 49.0023 26.3264C47.4865 26.3264 46.2903 27.5741 46.2903 29.09C46.2903 30.6058 47.4968 31.802 49.0023 31.802Z" fill="white"/>
<path d="M39.3607 31.802C40.8766 31.802 42.0728 30.6058 42.0728 29.09C42.0728 27.5741 40.8766 26.3264 39.3607 26.3264C37.8449 26.3264 36.6487 27.5741 36.6487 29.09C36.6487 30.6058 37.8552 31.802 39.3607 31.802Z" fill="white"/>
<path d="M5.125 44.2589L6.47586 41.1343H71.472L72.3588 44.2589H5.125Z" fill="#6D84F2"/>
<path d="M2.03145 60.5517C3.25857 61.7788 5.0116 62.5316 6.89869 62.5316H70.3171C70.8327 62.5316 71.307 62.7688 71.637 63.0987C71.967 63.4287 72.1526 63.9031 72.1526 64.4187C72.1526 64.6249 72.1114 64.8208 72.0598 65.0064H77.1333L77.1539 64.8415V64.4187C77.1539 62.5316 76.4011 60.7786 75.174 59.5514C73.8953 58.3243 72.1939 57.52 70.3068 57.52H6.89869C6.38309 57.52 5.90874 57.3344 5.57876 57.0044C5.19722 56.6744 5.00129 56.2001 5.00129 55.6845C5.00129 55.1689 5.1869 54.6945 5.56845 54.3645C5.89843 54.0345 6.37278 53.7974 6.88837 53.7974H75.6896C77.3189 53.7974 78.5151 52.2609 78.1129 50.6832C77.8345 49.5695 76.8342 48.7961 75.6896 48.7961H6.89869C4.96004 48.7961 3.25857 49.6004 2.03145 50.8275C0.752771 52.0443 0 53.7974 0 55.6845C0 57.5715 0.752771 59.273 2.03145 60.5001V60.5517Z" fill="#EF570D"/>
<path d="M6.89868 66.2645H70.3171C70.8327 66.2645 71.307 66.0789 71.637 65.7489C71.8845 65.5014 72.0495 65.1715 72.1217 64.8002H77.1642V64.8518L77.0095 65.9655C76.9889 66.1098 76.958 66.2439 76.9167 66.3883C76.5764 67.4916 75.9887 68.5022 75.1843 69.2962V69.2447C73.9056 70.5234 72.2042 71.2761 70.3171 71.2761H6.89868C6.38309 71.2761 5.90874 71.5133 5.57876 71.8433C5.19722 72.1733 5.0116 72.6476 5.0116 73.1632C5.0116 73.6788 5.19722 74.1532 5.57876 74.4831C5.90874 74.8131 6.38309 74.9987 6.89868 74.9987H76.7105C77.8551 74.9987 78.8554 75.7824 79.1338 76.8858C79.5359 78.4635 78.3398 80 76.7105 80H6.89868C5.0116 80 3.25857 79.2473 2.03145 77.9686V78.0201C0.752771 76.7415 0 75.0503 0 73.1529C0 71.2658 0.752771 69.5128 2.03145 68.2857C3.25857 67.0689 5.00129 66.2645 6.89868 66.2645Z" fill="#FF9059"/>
</svg>
