<svg width="32" height="32" viewBox="0 0 32 32" fill="none" xmlns="http://www.w3.org/2000/svg">
<g id="Frame 8999" clip-path="url(#clip0_1957_1290)">
<rect width="32" height="32" fill="white"/>
<g id="Group">
<g id="Group_2">
<path id="Vector" d="M23.688 26.5859C23.9078 26.3156 23.9811 25.9708 23.9719 25.6447C23.9719 25.2719 23.8528 24.9272 23.6239 24.6196C23.5872 24.573 23.5781 24.4612 23.6055 24.4146C23.8711 24.0419 23.9902 23.6319 23.9444 23.1659C23.8895 22.6161 23.6147 22.2061 23.1751 21.9079C22.8545 21.6936 22.4973 21.6284 22.1218 21.6284C21.151 21.6191 20.171 21.6284 19.2002 21.6284C19.1361 21.6284 19.072 21.6284 18.9987 21.6284C18.9987 21.5818 18.9987 21.5538 18.9987 21.5259C19.1086 20.9481 19.246 20.3797 19.3376 19.8019C19.4383 19.1683 19.4933 18.5253 19.42 17.8823C19.3376 17.1927 19.0262 16.6523 18.4766 16.2516C17.9271 15.8509 17.2952 15.7949 16.654 15.8322C16.3243 15.8509 16.1503 16.0279 16.0679 16.3541C16.0404 16.4659 16.0129 16.5777 15.9946 16.6895C15.729 17.9941 15.2711 19.1962 14.4193 20.2306C13.9156 20.8363 13.3569 21.3488 12.5601 21.5818C12.5326 21.5445 12.5143 21.5166 12.496 21.4793C12.1663 20.8083 11.6167 20.4915 10.9024 20.4822C9.83078 20.4636 8.75005 20.4729 7.67847 20.4822C7.25717 20.4822 7.01904 20.7245 7.01904 21.1624C7.01904 24.5451 7.01904 27.9277 7.01904 31.3104C7.01904 31.7484 7.25717 31.9906 7.69679 31.9906C8.75921 31.9906 9.82162 32 10.884 31.9813C11.1038 31.9813 11.3328 31.9347 11.5435 31.8695C11.9831 31.7297 12.2945 31.4036 12.5051 30.9935C12.8349 31.1054 13.1646 31.1986 13.476 31.329C14.749 31.8415 16.0679 32.0465 17.4417 32C18.6323 31.9627 19.8138 31.9906 21.0045 31.9906C21.1693 31.9906 21.3342 31.9906 21.4899 31.944C22.4699 31.7111 23.0285 30.7699 22.7721 29.8101C22.7355 29.661 22.7446 29.6051 22.8912 29.5399C23.8986 29.1485 24.2833 27.9091 23.6697 27.0145C23.5689 26.8468 23.5689 26.7443 23.688 26.5859ZM11.0489 30.8351C10.0964 30.8445 9.14387 30.8351 8.16389 30.8351C8.16389 27.76 8.16389 24.7128 8.16389 21.6284C8.21884 21.6284 8.28295 21.6284 8.3379 21.6284C9.21714 21.6284 10.0964 21.6284 10.9756 21.6284C11.3237 21.6284 11.5526 21.852 11.5526 22.2061C11.5526 24.8899 11.5526 27.5736 11.5526 30.2574C11.5526 30.5742 11.3328 30.8351 11.0489 30.8351ZM21.2243 25.0763C21.5723 25.0856 21.9295 25.0763 22.2775 25.0763C22.6256 25.0763 22.8637 25.2999 22.8637 25.6447C22.8637 25.9988 22.6347 26.2224 22.2867 26.2224C21.9386 26.2224 21.5815 26.2224 21.2334 26.2224C20.9495 26.2224 20.6931 26.3995 20.6381 26.6231C20.5374 27.0238 20.7938 27.3593 21.2334 27.3593C21.5906 27.3686 21.9478 27.3593 22.305 27.3593C22.6347 27.3593 22.8637 27.6016 22.8637 27.9371C22.8637 28.2725 22.6347 28.5148 22.305 28.5148C21.957 28.5148 21.5998 28.5148 21.2517 28.5148C20.9495 28.5148 20.7114 28.6919 20.6473 28.9248C20.5465 29.2882 20.7846 29.633 21.2059 29.661C21.4899 29.6796 21.7097 29.8753 21.7372 30.1362C21.7738 30.4531 21.6273 30.7047 21.3525 30.7979C21.2975 30.8165 21.2334 30.8165 21.1693 30.8165C19.4749 30.8165 17.7806 30.8258 16.077 30.8072C15.5 30.7979 14.9414 30.6115 14.401 30.4251C13.8332 30.2294 13.2653 30.0337 12.6883 29.838C12.6883 27.4525 12.6883 25.0856 12.6883 22.7C12.8165 22.6627 12.9448 22.6348 13.073 22.5882C13.8973 22.3086 14.5475 21.7775 15.1154 21.1252C16.1412 19.9417 16.7456 18.5532 17.057 17.025C17.057 17.0064 17.0662 16.997 17.0754 16.9784C17.7531 16.8573 18.3484 17.4909 18.3484 18.1432C18.3484 19.2149 18.2385 20.2679 17.9271 21.2929C17.9088 21.3581 17.8722 21.4234 17.8538 21.4886C17.8355 21.5911 17.7714 21.6191 17.6798 21.6191C17.3593 21.6191 17.0387 21.6191 16.7182 21.6191C16.4159 21.6191 16.1778 21.7868 16.1137 22.0291C16.0129 22.4111 16.2785 22.7652 16.7182 22.7652C17.0754 22.7652 17.4325 22.7652 17.7897 22.7652C19.2918 22.7652 20.7938 22.7652 22.2958 22.7652C22.5798 22.7652 22.8179 22.9516 22.8637 23.2125C22.9186 23.52 22.7629 23.7996 22.479 23.8928C22.4241 23.9114 22.36 23.9114 22.2958 23.9114C21.9386 23.9114 21.5815 23.9021 21.2243 23.9114C20.8304 23.9301 20.6198 24.1537 20.6198 24.4705C20.6015 24.806 20.803 25.0576 21.2243 25.0763Z" fill="#4361EE"/>
<path id="Vector_2" d="M17.7716 14.6674C18.0372 14.6581 18.2662 14.4717 18.2937 14.2294C18.3212 13.9871 18.3303 13.7449 18.3486 13.5119C18.3303 13.2603 18.3303 13.0087 18.2937 12.7664C18.2479 12.4962 18.0189 12.3378 17.7625 12.3471C17.4785 12.3564 17.2587 12.5428 17.2496 12.7664C17.2313 13.251 17.2313 13.7449 17.2496 14.2294C17.2587 14.4903 17.5243 14.6767 17.7716 14.6674Z" fill="#4361EE"/>
<path id="Vector_3" d="M14.5844 15.6832C14.7584 15.8603 14.9599 15.8789 15.1705 15.8044C15.3995 15.7298 15.5094 15.5434 15.5552 15.2639C15.4819 15.1334 15.4361 14.9936 15.3446 14.8818C15.0973 14.6023 14.8225 14.3413 14.5661 14.0804C14.3371 13.8568 14.0165 13.8475 13.7967 14.0711C13.5678 14.2948 13.5678 14.6302 13.7967 14.8632C14.0532 15.1427 14.3188 15.4037 14.5844 15.6832Z" fill="#4361EE"/>
<path id="Vector_4" d="M20.5741 15.8694C20.6932 15.8135 20.8305 15.7763 20.9221 15.6924C21.2152 15.4222 21.49 15.1333 21.7647 14.8444C21.9754 14.6301 21.9571 14.2946 21.7464 14.0803C21.5358 13.8659 21.2061 13.8566 20.9954 14.071C20.7206 14.3505 20.4459 14.6301 20.1711 14.9096C20.0246 15.068 19.9788 15.3196 20.0612 15.506C20.162 15.7203 20.3177 15.8415 20.5741 15.8694Z" fill="#4361EE"/>
<path id="Vector_5" d="M9.84005 28.5429C9.48286 28.5802 9.32716 28.8131 9.29053 29.1113C9.29969 29.4095 9.59277 29.7077 9.86753 29.6704C10.2156 29.6332 10.3896 29.4095 10.4079 29.102C10.4262 28.8131 10.1148 28.5056 9.84005 28.5429Z" fill="#4361EE"/>
</g>
<path id="Vector_6" d="M28.5329 14.1829C28.2215 13.6517 27.7544 13.2324 27.2049 12.9435C26.4813 12.5708 18.559 9.69132 16.2785 8.87129V5.78684H15.3443C14.8223 5.78684 14.3277 5.57251 13.998 5.22772C13.6316 4.85498 13.4301 4.37973 13.4301 3.82994C13.4301 3.29878 13.6408 2.79557 13.998 2.43215C14.3368 2.08736 14.8314 1.87303 15.3443 1.87303C15.7839 1.87303 16.2052 2.00349 16.5349 2.27373C16.7273 2.44147 16.9013 2.62784 17.0295 2.8608C17.1761 3.12172 17.4691 3.2615 17.7531 3.17764L18.2843 3.03786C18.6689 2.93535 18.8887 2.49738 18.7147 2.13395C18.4583 1.6028 18.0828 1.14619 17.6523 0.792079C17.002 0.288876 16.2052 0 15.3443 0C14.3094 0 13.3752 0.419336 12.6974 1.13687C12.0197 1.82644 11.5801 2.77694 11.5801 3.82994C11.5801 4.88294 12.0197 5.83343 12.6974 6.55096C13.1187 6.97962 13.6408 7.29645 14.2361 7.49214C14.3552 7.52941 14.4376 7.63192 14.4376 7.76238V8.89924C12.2028 9.71928 4.51866 12.5708 3.79512 12.9435C3.24559 13.2324 2.80597 13.661 2.49457 14.1829C2.18318 14.6861 2 15.2918 2 15.9255C2 16.848 2.36635 17.696 2.96167 18.3017C3.55699 18.9074 4.37212 19.2708 5.26967 19.2801H5.28799C5.28799 19.2801 5.28799 19.2801 5.29715 19.2801H12.5692C12.8714 19.2801 13.1096 19.0379 13.1096 18.7303V17.9569C13.1096 17.6494 12.8714 17.4071 12.5692 17.4071H5.29715C4.90332 17.4071 4.51866 17.2487 4.26221 16.9878C4.00577 16.7268 3.85007 16.3262 3.85007 15.9348C3.85007 15.6459 3.9325 15.3757 4.06072 15.1427C4.18894 14.9284 4.39959 14.7234 4.62856 14.5836C5.30631 14.2388 13.6591 11.1543 15.3809 10.5114C17.0936 11.145 25.712 14.2388 26.3898 14.5836C26.6462 14.714 26.8294 14.9284 26.9851 15.1427C27.1133 15.385 27.1957 15.6459 27.1957 15.9348C27.1957 16.3355 27.0126 16.7268 26.7561 16.9878C26.4997 17.2487 26.1333 17.4071 25.7212 17.4071H21.325C21.0136 17.4071 20.7571 17.668 20.7571 17.9849V18.7024C20.7571 19.0192 21.0136 19.2801 21.325 19.2801H25.7212C25.7212 19.2801 25.7212 19.2801 25.7303 19.2801H25.767C26.6554 19.2708 27.4705 18.9074 28.0658 18.311C28.6611 17.7053 29.0275 16.8573 29.0275 15.9348C29 15.2918 28.8443 14.6861 28.5329 14.1829Z" fill="#EF570D"/>
</g>
</g>
<defs>
<clipPath id="clip0_1957_1290">
<rect width="32" height="32" fill="white"/>
</clipPath>
</defs>
</svg>
