<svg width="80" height="81" viewBox="0 0 80 81" fill="none" xmlns="http://www.w3.org/2000/svg">
<path fill-rule="evenodd" clip-rule="evenodd" d="M0 20.084H16.79V26.464C16.7527 27.4965 16.9239 28.526 17.2934 29.4909C17.6628 30.4558 18.2229 31.3363 18.9402 32.08C19.6575 32.8236 20.5173 33.4151 21.4682 33.8191C22.4192 34.223 23.4418 34.4313 24.475 34.4313C25.5082 34.4313 26.5308 34.223 27.4818 33.8191C28.4327 33.4151 29.2925 32.8236 30.0098 32.08C30.7271 31.3363 31.2872 30.4558 31.6566 29.4909C32.0261 28.526 32.1973 27.4965 32.16 26.464V20.084H47.84V26.464C47.8413 27.4778 48.0423 28.4814 48.4315 29.4175C48.8207 30.3537 49.3904 31.204 50.1082 31.9199C50.826 32.6359 51.6778 33.2034 52.6149 33.5902C53.5521 33.9769 54.5562 34.1753 55.57 34.174C56.5792 34.174 57.5784 33.9741 58.51 33.5858C59.4415 33.1975 60.2868 32.6285 60.9972 31.9116C61.7076 31.1947 62.2689 30.3442 62.6487 29.4092C63.0285 28.4742 63.2192 27.4732 63.21 26.464V20.084H80L73.89 71.284C73.38 74.834 72.89 80.004 67.18 80.004H12.93C7.12 80.004 6.62 74.934 6.21 71.284L0 20.084Z" fill="#4361EE"/>
<path d="M27.1798 27.0041C27.1919 27.3596 27.1323 27.7139 27.0045 28.0459C26.8768 28.3778 26.6835 28.6807 26.4362 28.9364C26.1889 29.1921 25.8927 29.3954 25.5651 29.5341C25.2376 29.6729 24.8855 29.7443 24.5298 29.7441C24.1688 29.7467 23.8108 29.6777 23.4766 29.5411C23.1424 29.4045 22.8387 29.2029 22.5829 28.9481C22.3271 28.6932 22.1245 28.3902 21.9866 28.0565C21.8488 27.7228 21.7785 27.3651 21.7798 27.0041V14.8041C21.8269 12.7183 22.3571 10.6719 23.3288 8.82568C24.3005 6.97947 25.6872 5.38379 27.3798 4.16409C30.9894 1.37966 35.442 -0.0880615 39.9998 0.00408921C44.5576 -0.0880615 49.0102 1.37966 52.6198 4.16409C54.3124 5.38379 55.6991 6.97947 56.6708 8.82568C57.6425 10.6719 58.1727 12.7183 58.2198 14.8041V27.0041C58.2198 27.3587 58.15 27.7098 58.0143 28.0373C57.8786 28.3649 57.6797 28.6626 57.429 28.9133C57.1783 29.164 56.8806 29.3629 56.553 29.4986C56.2255 29.6343 55.8744 29.7041 55.5198 29.7041C55.1652 29.7041 54.8141 29.6343 54.4866 29.4986C54.159 29.3629 53.8613 29.164 53.6106 28.9133C53.3599 28.6626 53.161 28.3649 53.0253 28.0373C52.8896 27.7098 52.8198 27.3587 52.8198 27.0041V14.8041C52.7653 13.5214 52.4157 12.2686 51.7983 11.143C51.1808 10.0175 50.3122 9.04939 49.2598 8.31409C46.5813 6.34074 43.3261 5.30722 39.9998 5.37409C36.6735 5.30722 33.4183 6.34074 30.7398 8.31409C29.7037 9.06556 28.847 10.0374 28.2314 11.1596C27.6159 12.2818 27.2567 13.5265 27.1798 14.8041V27.0041Z" fill="#EF570D"/>
</svg>
