<svg width="80" height="80" viewBox="0 0 80 80" fill="none" xmlns="http://www.w3.org/2000/svg">
<g clip-path="url(#clip0_635_483)">
<rect width="80" height="80" fill="white"/>
<path d="M44.2933 63.5012V74.1706C44.2933 76.9867 41.9733 79.2475 39.1733 79.2475H5.12C2.32 79.2475 0 76.9867 0 74.1706V5.07692C0 2.30048 2.32 0 5.12 0H39.1733C41.9733 0 44.2933 2.30048 44.2933 5.07692V11.5817V63.5012Z" fill="#4361EE"/>
<path d="M41.3467 8.97711H2.94666V68.459H41.3467V8.97711Z" fill="white"/>
<path d="M18.24 14.3846C22.2933 14.3846 25.5333 17.637 25.5333 21.6562C25.5333 25.6358 18.24 35.1814 18.24 35.1814C18.24 35.1814 10.9467 25.649 10.9467 21.6562C10.9467 17.637 14.1867 14.3846 18.24 14.3846Z" fill="#EF570D"/>
<path d="M33.3467 55.5024H16.9467V36.3185H19.5333V52.9375H33.3467V55.5024Z" fill="#4361EE"/>
<path fill-rule="evenodd" clip-rule="evenodd" d="M18.24 24.9483C19.8666 24.9483 21.2266 23.6262 21.2266 22.0264C21.2266 20.387 19.8666 19.0649 18.24 19.0649C16.6133 19.0649 15.2533 20.387 15.2533 22.0264C15.2533 23.6394 16.6266 24.9483 18.24 24.9483Z" fill="white"/>
<path d="M52.28 48.3762L41.4134 57.6575V48.3762H37.5867C36.5867 48.3762 35.7467 47.5697 35.7467 46.5517V19.0649C35.7467 18.0469 36.6 17.2404 37.5867 17.2404H78.16C79.1867 17.2404 80 18.0866 80 19.0649V46.5517C80 47.5697 79.1867 48.3762 78.16 48.3762H52.28Z" fill="#EF570D"/>
<path d="M27.3867 72.6766H16.92V75.2283H27.3867V72.6766Z" fill="white"/>
<path d="M72.3334 23.3486H43.4V25.9003H72.3334V23.3486Z" fill="white"/>
<path d="M72.3333 30.6202H59.5867V33.1719H72.3333V30.6202Z" fill="white"/>
<path d="M72.3334 37.8521H43.4V40.4038H72.3334V37.8521Z" fill="white"/>
<path d="M52.5734 30.6202H43.4V33.1719H52.5734V30.6202Z" fill="white"/>
</g>
<defs>
<clipPath id="clip0_635_483">
<rect width="80" height="80" fill="white"/>
</clipPath>
</defs>
</svg>
