<svg width="27" height="17" viewBox="0 0 27 17" fill="none" xmlns="http://www.w3.org/2000/svg">
<path d="M17.1494 15.1837H9.84766V1.81851H17.1494V15.1837Z" fill="#6C6BBD"/>
<path d="M10.3146 8.5C10.3146 5.7888 11.561 3.37374 13.5019 1.81738C12.0825 0.679287 10.2913 0 8.34455 0C3.73587 0 0 3.80552 0 8.5C0 13.1945 3.73587 17 8.34455 17C10.2913 17 12.0825 16.3207 13.5019 15.1826C11.561 13.6263 10.3146 11.2112 10.3146 8.5Z" fill="#EB001B"/>
<path d="M27.0005 8.5C27.0005 13.1945 23.2646 17 18.6559 17C16.7092 17 14.9179 16.3207 13.498 15.1826C15.4395 13.6263 16.6858 11.2112 16.6858 8.5C16.6858 5.7888 15.4395 3.37374 13.498 1.81738C14.9179 0.679287 16.7092 0 18.6559 0C23.2646 0 27.0005 3.80552 27.0005 8.5Z" fill="#0099DF"/>
</svg>
