<svg width="53" height="14" viewBox="0 0 53 14" fill="none" xmlns="http://www.w3.org/2000/svg">
<path d="M8.97156 0.679325C8.30723 0.226807 7.44035 0 6.37089 0H2.23056C1.9027 0 1.72157 0.162464 1.68717 0.487079L0.00527942 10.9481C-0.0122007 11.0509 0.0137426 11.1448 0.0828721 11.2303C0.151606 11.3158 0.238058 11.3584 0.341594 11.3584H2.30823C2.65316 11.3584 2.84276 11.1963 2.87756 10.8713L3.34327 8.05104C3.36028 7.91436 3.42094 7.80323 3.52448 7.71765C3.62794 7.63222 3.75734 7.57634 3.9126 7.55079C4.06787 7.5254 4.21427 7.51255 4.35253 7.51255C4.4904 7.51255 4.6542 7.52125 4.84427 7.53825C5.03386 7.55526 5.15472 7.56364 5.20653 7.56364C6.69005 7.56364 7.85449 7.14945 8.69994 6.32012C9.545 5.49126 9.968 4.34187 9.968 2.87146C9.968 1.86297 9.63557 1.13231 8.97156 0.67909V0.679325ZM6.83685 3.82046C6.75032 4.41883 6.52632 4.81178 6.16406 4.99987C5.80172 5.1882 5.2842 5.28193 4.61149 5.28193L3.7575 5.30748L4.19751 2.56393C4.23183 2.37607 4.34391 2.28202 4.53382 2.28202H5.02564C5.71535 2.28202 6.21595 2.38054 6.52648 2.57678C6.83685 2.77349 6.94038 3.18816 6.83685 3.82046V3.82046Z" fill="#003087"/>
<path d="M52.6642 0H50.7495C50.5592 0 50.4472 0.094047 50.4131 0.282217L48.731 10.9486L48.7051 10.9998C48.7051 11.0857 48.7396 11.1665 48.8088 11.2435C48.8774 11.3203 48.964 11.3588 49.0674 11.3588H50.7756C51.1028 11.3588 51.284 11.1967 51.319 10.8717L53.0009 0.384805V0.359334C53.0008 0.119909 52.8884 0.00031451 52.6642 0.00031451V0Z" fill="#009CDE"/>
<path d="M29.5304 4.12741C29.5304 4.04214 29.4958 3.96079 29.4272 3.88406C29.358 3.80718 29.2803 3.76846 29.1943 3.76846H27.2018C27.0116 3.76846 26.8563 3.85436 26.7358 4.02482L23.9929 8.02482L22.8543 4.17882C22.7676 3.90554 22.5781 3.76846 22.2851 3.76846H20.344C20.2575 3.76846 20.1799 3.80702 20.1114 3.88406C20.0421 3.96079 20.0078 4.04229 20.0078 4.12741C20.0078 4.16181 20.176 4.6659 20.5124 5.64021C20.8487 6.61484 21.2109 7.66612 21.5991 8.79435C21.9874 9.92236 22.1899 10.521 22.2072 10.5888C20.7925 12.5035 20.0855 13.5291 20.0855 13.6656C20.0855 13.888 20.1974 13.999 20.4219 13.999H22.4144C22.6041 13.999 22.7592 13.9137 22.8803 13.7427L29.479 4.3068C29.5133 4.27294 29.5304 4.21338 29.5304 4.12733V4.12741Z" fill="#003087"/>
<path d="M48.0876 3.76896H46.1209C45.8791 3.76896 45.733 4.0511 45.6812 4.6153C45.2321 3.93174 44.4132 3.58949 43.2226 3.58949C41.9806 3.58949 40.9238 4.0511 40.0528 4.97417C39.1815 5.89723 38.7461 6.983 38.7461 8.23068C38.7461 9.23941 39.0437 10.0427 39.6387 10.6408C40.2339 11.2395 41.0316 11.5382 42.0326 11.5382C42.5328 11.5382 43.0416 11.4355 43.5592 11.2305C44.0767 11.0254 44.4817 10.7521 44.7756 10.41C44.7756 10.4272 44.7579 10.5039 44.7238 10.6405C44.689 10.7775 44.6719 10.8804 44.6719 10.9482C44.6719 11.2221 44.7838 11.3584 45.0084 11.3584H46.7941C47.1214 11.3584 47.3114 11.1964 47.363 10.8713L48.4241 4.17916C48.4411 4.0765 48.4153 3.98268 48.3464 3.8971C48.2771 3.81183 48.191 3.76896 48.0876 3.76896V3.76896ZM44.7107 8.82035C44.2708 9.24771 43.7402 9.46128 43.1192 9.46128C42.6187 9.46128 42.2137 9.32475 41.903 9.05108C41.5923 8.77819 41.4371 8.40208 41.4371 7.92291C41.4371 7.29092 41.6527 6.75627 42.0842 6.32044C42.5149 5.88454 43.0502 5.66666 43.6885 5.66666C44.1711 5.66666 44.5723 5.80765 44.8917 6.08956C45.2106 6.3717 45.3707 6.76058 45.3707 7.25644C45.3705 7.87174 45.1505 8.39322 44.7107 8.82035Z" fill="#009CDE"/>
<path d="M18.6914 3.76896H16.7247C16.4828 3.76896 16.3365 4.0511 16.2847 4.6153C15.8189 3.93174 14.9994 3.58949 13.8263 3.58949C12.5842 3.58949 11.5274 4.0511 10.6563 4.97417C9.78503 5.89723 9.34961 6.983 9.34961 8.23068C9.34961 9.23941 9.64725 10.0427 10.2424 10.6408C10.8376 11.2395 11.6353 11.5382 12.636 11.5382C13.1188 11.5382 13.6194 11.4355 14.1368 11.2305C14.6544 11.0254 15.0684 10.7521 15.379 10.41C15.3097 10.615 15.2754 10.7945 15.2754 10.9482C15.2754 11.2221 15.3875 11.3584 15.6118 11.3584H17.3973C17.7248 11.3584 17.9148 11.1964 17.9666 10.8713L19.0275 4.17916C19.0445 4.0765 19.0187 3.98268 18.9499 3.8971C18.8809 3.81183 18.7948 3.76896 18.6914 3.76896V3.76896ZM15.3144 8.83305C14.8744 9.25234 14.3351 9.46128 13.6972 9.46128C13.1966 9.46128 12.7955 9.32475 12.4938 9.05108C12.1917 8.77819 12.0409 8.40208 12.0409 7.92291C12.0409 7.29092 12.2564 6.75627 12.6879 6.32044C13.1189 5.88454 13.6537 5.66658 14.2923 5.66658C14.7751 5.66658 15.1762 5.80765 15.4956 6.08956C15.8145 6.3717 15.9743 6.76058 15.9743 7.25644C15.9742 7.8889 15.7543 8.4147 15.3144 8.83305V8.83305Z" fill="#003087"/>
<path d="M38.3682 0.679325C37.7039 0.226807 36.8373 0 35.7676 0H31.6531C31.308 0 31.1181 0.162464 31.0838 0.487079L29.4018 10.9481C29.3843 11.0509 29.4102 11.1448 29.4794 11.2303C29.5479 11.3158 29.6345 11.3584 29.7381 11.3584H31.8599C32.0669 11.3584 32.2048 11.2474 32.274 11.0252L32.7398 8.05104C32.757 7.91436 32.8173 7.80323 32.921 7.71765C33.0246 7.63222 33.1538 7.57634 33.3092 7.55079C33.4643 7.5254 33.6107 7.51255 33.7491 7.51255C33.887 7.51255 34.0508 7.52125 34.2407 7.53825C34.4303 7.55526 34.5515 7.56364 34.6029 7.56364C36.0867 7.56364 37.251 7.14945 38.0964 6.32012C38.9418 5.49126 39.3644 4.34187 39.3644 2.87146C39.3645 1.86297 39.0322 1.13223 38.3682 0.67909V0.679325ZM35.7159 4.89721C35.3363 5.15356 34.7669 5.2817 34.008 5.2817L33.1798 5.3074L33.6198 2.56377C33.6539 2.37599 33.7661 2.28179 33.9561 2.28179H34.4217C34.8013 2.28179 35.1031 2.29895 35.3277 2.33304C35.5516 2.36737 35.7676 2.47403 35.9746 2.65343C36.1817 2.83298 36.2851 3.0938 36.2851 3.4355C36.2851 4.1537 36.0951 4.64062 35.7159 4.89721Z" fill="#009CDE"/>
</svg>
