<svg width="43" height="13" viewBox="0 0 43 13" fill="none" xmlns="http://www.w3.org/2000/svg">
<path d="M40.1085 0.185318H37.4054C36.5882 0.185318 35.9596 0.432937 35.5824 1.2377L30.4277 12.8139H34.0737C34.0737 12.8139 34.7024 11.2663 34.8281 10.8948C35.2053 10.8948 38.7884 10.8948 39.2913 10.8948C39.417 11.3282 39.7313 12.752 39.7313 12.752H43.0002L40.1085 0.185318ZM35.8339 8.29484C36.1482 7.55199 37.2168 4.76627 37.2168 4.76627C37.2168 4.82818 37.5312 4.02341 37.6569 3.59008L37.9083 4.70437C37.9083 4.70437 38.5998 7.7377 38.7255 8.35675H35.8339V8.29484Z" fill="#3362AB"/>
<path d="M30.6806 8.66667C30.6806 11.2667 28.2919 13 24.583 13C23.0114 13 21.5028 12.6905 20.6855 12.319L21.1884 9.47143L21.6285 9.65714C22.76 10.1524 23.5143 10.3381 24.8973 10.3381C25.9031 10.3381 26.9718 9.96667 26.9718 9.1C26.9718 8.54286 26.5317 8.17143 25.1488 7.55238C23.8287 6.93333 22.0685 5.94286 22.0685 4.14762C22.0685 1.67143 24.5201 0 27.9776 0C29.2977 0 30.4292 0.247619 31.1207 0.557143L30.6178 3.28095L30.3663 3.03333C29.7377 2.78571 28.9205 2.5381 27.7261 2.5381C26.406 2.6 25.7774 3.15714 25.7774 3.65238C25.7774 4.20952 26.5317 4.64286 27.7261 5.2C29.7377 6.12857 30.6806 7.18095 30.6806 8.66667Z" fill="#3362AB"/>
<path d="M0 0.310195L0.0628622 0.0625763H5.46901C6.22336 0.0625763 6.78912 0.310195 6.9777 1.11496L8.17208 6.68639C6.9777 3.71496 4.21177 1.30067 0 0.310195Z" fill="#F9B50B"/>
<path d="M15.7839 0.187057L10.3149 12.7537H6.606L3.46289 2.22991C5.72593 3.65372 7.61179 5.8823 8.30328 7.42991L8.68045 8.72991L12.075 0.125153H15.7839V0.187057Z" fill="#3362AB"/>
<path d="M17.2275 0.125153H20.6849L18.4848 12.7537H15.0273L17.2275 0.125153Z" fill="#3362AB"/>
</svg>
