<svg width="80" height="80" viewBox="0 0 80 80" fill="none" xmlns="http://www.w3.org/2000/svg">
<path d="M49.6001 43.0667C49.0668 43.0667 48.5334 43.3333 48.2668 43.7333C47.8668 44.4 47.6001 45.6 47.6001 47.4666C47.6001 49.3333 47.8668 50.5333 48.2668 51.2C48.5334 51.7333 49.0668 52 49.6001 52C50.1334 52 50.6668 51.7333 50.9334 51.3333C51.3334 50.6667 51.6001 49.4667 51.6001 47.6C51.6001 45.7333 51.4668 44.5333 50.9334 43.8667C50.6668 43.3333 50.1334 43.0667 49.6001 43.0667Z" fill="#EF570D"/>
<path d="M30.3999 28C29.8666 28 29.3332 28.2667 29.0666 28.6667C28.6666 29.3333 28.3999 30.5333 28.3999 32.4C28.3999 34.2667 28.6666 35.4667 29.0666 36.1333C29.4666 36.5333 29.8666 36.8 30.3999 36.8C30.9332 36.8 31.4666 36.5333 31.7332 36.1333C32.1332 35.4667 32.3999 34.2667 32.3999 32.4C32.3999 30.5333 32.1332 29.3333 31.7332 28.6667C31.3332 28.2667 30.9332 28 30.3999 28Z" fill="#EF570D"/>
<path d="M50.1333 66C50.1333 57.6 56.9333 50.8 65.3333 50.8C69.7333 50.8 73.6 52.6667 76.4 55.6L76.9333 55.3333L73.2 46.6667L80 40L73.3333 33.4667L77.0667 24.6667L68.4 21.2V11.7333L59.0667 11.8667L55.4667 3.06667L46.6667 6.8L40 0L33.4667 6.66667L24.6667 2.93333L21.2 11.6H11.7333L11.8667 20.9333L3.06667 24.5333L6.8 33.3333L0 40L6.66667 46.5333L2.93333 55.3333L11.6 58.8V68.2667L20.9333 68.1333L24.5333 76.9333L33.2 73.2L39.8667 80L46.4 73.3333L54.2667 76.6667C51.7333 73.8667 50.1333 70.1333 50.1333 66ZM25.7333 38.1333C24.6667 36.9333 24 35.0667 24 32.4C24 29.8667 24.5333 28 25.7333 26.8C26.9333 25.6 28.4 24.9333 30.2667 24.9333C32.2667 24.9333 33.8667 25.4667 34.9333 26.8C36.1333 28 36.6667 30 36.6667 32.5333C36.6667 35.0667 36.1333 36.9333 34.9333 38.2667C33.8667 39.4667 32.2667 40.1333 30.4 40.1333C28.4 39.8667 26.9333 39.3333 25.7333 38.1333ZM34.5333 55.0667H30.4L45.6 24.9333H49.6L34.5333 55.0667ZM45.0667 53.3333C44 52.1333 43.3333 50.1333 43.3333 47.6C43.3333 45.0667 43.8667 43.2 45.0667 41.8667C46.1333 40.6667 47.7333 40 49.7333 40C51.7333 40 53.2 40.5333 54.4 41.8667C55.4667 43.0667 56.1333 45.0667 56.1333 47.6C56.1333 50.1333 55.6 52.1333 54.4 53.3333C53.3333 54.5333 51.7333 55.2 49.8667 55.2C47.7333 55.0667 46.1333 54.5333 45.0667 53.3333Z" fill="#EF570D"/>
<path d="M65.3333 54.8C59.2 54.8 54.1333 59.8667 54.1333 66C54.1333 72.1333 59.2 77.2 65.3333 77.2C71.4666 77.2 76.5333 72.1333 76.5333 66C76.5333 59.8667 71.6 54.8 65.3333 54.8ZM72 63.4667L66 69.4667L64.9333 70.6667C64.8 70.8 64.5333 70.9333 64.4 70.9333C64.2666 70.9333 64 70.8 63.7333 70.6667L62.6666 69.6L59.6 66.5333C59.4666 66.4 59.3333 66.1333 59.3333 66C59.3333 65.8667 59.4666 65.6 59.6 65.4667L60.8 64.2667C60.9333 64.1333 61.2 64 61.3333 64C61.4666 64 61.7333 64.1333 61.8666 64.2667L64.2666 66.6667L69.7333 61.2C69.8666 61.0667 70.1333 60.9333 70.2666 60.9333C70.4 60.9333 70.6666 61.0667 70.8 61.2L71.8666 62.4C72 62.5333 72.1333 62.8 72.1333 62.9333C72.2666 63.2 72.2666 63.3333 72 63.4667Z" fill="#4361EE"/>
</svg>
