<svg width="164" height="163" viewBox="0 0 164 163" fill="none" xmlns="http://www.w3.org/2000/svg">
<path fill-rule="evenodd" clip-rule="evenodd" d="M46.2132 124.741C51.4195 124.741 55.532 120.497 55.532 115.291C55.532 110.084 51.3976 105.972 46.2132 105.972C41.007 105.972 36.8945 110.106 36.8945 115.291C36.8945 120.497 41.0289 124.741 46.2132 124.741Z" fill="white"/>
<path fill-rule="evenodd" clip-rule="evenodd" d="M114.944 68.25C117.547 68.25 119.669 66.1281 119.669 63.525C119.669 61.0531 117.547 58.9094 114.944 58.9094C112.341 58.9094 110.219 61.0313 110.219 63.525C110.219 66.1281 112.341 68.25 114.944 68.25Z" fill="#D1D9FF"/>
<path fill-rule="evenodd" clip-rule="evenodd" d="M101.47 97.3C104.073 97.3 106.195 95.1781 106.195 92.6844C106.195 90.0812 104.073 87.9594 101.47 87.9594C98.8665 87.9594 96.7446 90.0812 96.7446 92.6844C96.7665 95.1781 98.8884 97.3 101.47 97.3Z" fill="#A0B0FD"/>
<path d="M127.807 66.7991C128.634 64.0752 132.032 62.4156 135.451 63.1913C138.739 63.9669 140.634 66.7992 139.806 69.5231L126.522 109.931C121.709 110.509 117.244 111.302 112.889 112.276L127.807 66.7991ZM60.3165 145H29.7402C26.8001 145 24.3392 143.25 23.6205 141.013L0.230889 69.5411C-0.705566 66.8172 1.29801 63.985 4.5865 63.2093C7.87498 62.4336 11.2942 64.0932 12.2306 66.8172L34.4442 134.681H69.2455C65.957 137.784 63.017 141.302 60.3165 145Z" fill="#5C76F4"/>
<path fill-rule="evenodd" clip-rule="evenodd" d="M14.6914 7.19689L54.2414 0C55.0727 7.91875 61.7883 13.9344 69.8383 13.9344C77.9758 13.9344 84.6039 7.91875 85.5446 0L125.095 7.19689V33.6438H104.904V67.0688C103.373 66.7188 101.601 66.4782 99.9383 66.4782C88.3664 66.4782 78.8071 75.0969 77.1446 86.1875C72.5289 84.525 67.3445 84.8969 62.9695 87.2594C59.5352 77.9407 50.6977 71.3125 40.3071 71.3125C38.4258 71.3125 36.5227 71.5531 34.8821 71.9031V33.6438H14.6914V7.19689Z" fill="#EF570D"/>
<path fill-rule="evenodd" clip-rule="evenodd" d="M25.5415 81.4844C27.3134 80.1938 29.4353 79.1219 31.5571 78.4219C33.679 77.7219 35.9321 77.2406 38.2946 77.2406C44.0915 77.2406 49.3853 79.7125 53.1696 83.4969C56.2321 86.5594 58.3759 90.4531 59.0759 94.9594C60.3665 94.0188 61.679 93.1875 63.1008 92.4875C65.8133 91.1969 68.8977 90.475 72.2009 90.475C74.454 90.475 76.5759 90.7156 78.5665 91.4156C79.3977 91.6563 80.0977 91.8969 80.8196 92.2469C81.0602 86.6907 83.4228 81.7469 87.0759 78.0719C90.8603 74.1781 96.1759 71.8156 102.082 71.8156C105.035 71.8156 107.879 72.4063 110.351 73.5875C113.063 74.6594 115.426 76.4313 117.438 78.4219L114.376 81.2656C112.845 79.6031 110.941 78.3125 108.71 77.3719C106.698 76.5406 104.467 75.95 102.104 75.95C97.379 75.95 93.1352 77.9625 90.0509 81.025C86.9665 84.0875 85.0853 88.3531 85.0853 92.9469C85.0853 93.4281 85.0853 93.8875 85.0853 94.3688C85.0853 94.85 85.1946 95.3094 85.1946 95.6594L86.0259 100.494L82.0009 97.65C80.579 96.7094 79.0477 95.8781 77.2759 95.3968C75.7446 94.8062 73.9727 94.5656 72.2009 94.5656C69.5977 94.5656 66.9946 95.1562 64.8727 96.2281C62.5102 97.3 60.4977 98.9406 58.9665 100.844L54.9415 105.809C55.0509 103.337 55.1821 100.844 55.2915 98.4812C55.2915 93.7562 53.4102 89.5125 50.3258 86.4281C47.2633 83.3656 42.9978 81.4625 38.2728 81.4625C36.3915 81.4625 34.4884 81.7031 32.8477 82.2937C31.0759 82.8844 29.5446 83.7156 28.0134 84.7656L25.5415 81.4844Z" fill="#A0B0FD"/>
<path fill-rule="evenodd" clip-rule="evenodd" d="M54.8321 64.4656C49.6258 64.9469 45.1415 61.1625 44.6821 55.9562C44.3321 50.8812 48.1165 46.3969 53.1915 45.9156C58.2665 45.4344 62.8821 49.2188 63.3415 54.2938C63.6915 59.5219 59.9071 64.0063 54.8321 64.4656Z" fill="#FEFEFE"/>
<path fill-rule="evenodd" clip-rule="evenodd" d="M149.551 106.431C104.794 104.419 77.757 121.438 64.1726 152.828C89.6789 152.828 115.185 152.828 140.691 152.828C143.535 147.031 149.791 142.678 159.351 142.919C156.026 130.756 152.854 118.594 149.551 106.431Z" fill="#FF9059"/>
<path fill-rule="evenodd" clip-rule="evenodd" d="M99.9382 137.012C109.388 137.012 118.707 137.012 128.048 137.012C129.469 132.397 133.013 129.334 137.848 127.322C137.148 124.959 136.557 122.597 135.966 120.366C135.966 120.366 104.204 118.834 99.9382 137.012Z" fill="#FEFEFE"/>
<path fill-rule="evenodd" clip-rule="evenodd" d="M80.6882 113.278L95.3226 104.9C96.8538 103.959 98.8663 104.55 99.8069 106.081C100.748 107.744 100.157 109.734 98.6257 110.697L83.9913 119.075C82.4601 120.016 80.3382 119.425 79.5069 117.894C78.5663 116.231 79.0476 114.241 80.6882 113.278Z" fill="#FFD0B9"/>
<path fill-rule="evenodd" clip-rule="evenodd" d="M62.6194 157.575H162.304L163.463 163H60.2788L62.6194 157.575Z" fill="#FFD0B9"/>
<path fill-rule="evenodd" clip-rule="evenodd" d="M141.741 143.05C144.695 143.05 147.057 140.688 147.057 137.734C147.057 134.891 144.695 132.419 141.741 132.419C138.788 132.419 136.426 134.891 136.426 137.734C136.426 140.688 138.788 143.05 141.741 143.05Z" fill="#FEFEFE"/>
</svg>
