<svg width="175" height="155" viewBox="0 0 175 155" fill="none" xmlns="http://www.w3.org/2000/svg">
<path fill-rule="evenodd" clip-rule="evenodd" d="M100.188 83.8092C101.631 83.8092 102.878 85.0535 102.878 86.4944C102.878 88.0444 101.631 89.2669 100.188 89.2669H30.3406C28.0656 89.2669 25.9 90.1838 24.4563 91.6246V91.7338C22.9031 93.1746 21.9844 95.2268 21.9844 97.6063C21.9844 99.8768 22.9031 101.929 24.4563 103.37C26.0094 104.92 28.0656 105.837 30.3406 105.837H104.519C109.878 105.837 114.734 103.675 118.234 100.182C121.734 96.6894 123.9 91.843 123.9 86.4944C123.9 81.2331 121.734 76.4084 118.234 72.8937C114.734 69.4007 109.878 67.1303 104.519 67.1303H30.4281C22.0719 67.1303 14.4375 70.6232 8.96875 76.081C3.4125 81.6479 0 89.1577 0 97.4972C0 105.946 3.4125 113.456 8.96875 119.023C14.4375 124.48 22.0719 127.973 30.4281 127.973H115.544C117.819 127.973 119.875 126.947 121.428 125.506L121.538 125.397C122.981 123.847 123.9 121.795 123.9 119.634C123.9 117.363 122.981 115.202 121.428 113.761C119.875 112.211 117.819 111.294 115.544 111.294H30.3406C26.5125 111.294 23.1219 109.744 20.5406 107.277C18.0688 104.811 16.5156 101.296 16.5156 97.6063C16.5156 93.7859 18.0688 90.293 20.5406 87.8261C23.1219 85.3592 26.5344 83.8092 30.3406 83.8092H100.188Z" fill="#EF570D"/>
<path fill-rule="evenodd" clip-rule="evenodd" d="M27.7154 44.1641C26.2717 44.1641 25.0248 42.9197 25.0248 41.3915C25.0248 39.9507 26.2717 38.7063 27.7154 38.7063H106.422C108.697 38.7063 110.753 37.7894 112.306 36.2394C113.859 34.7986 114.778 32.6373 114.778 30.3669C114.778 28.0965 113.859 26.0444 112.306 24.4944C110.753 23.0535 108.697 22.1366 106.422 22.1366H23.3842C18.0248 22.1366 13.1686 24.2979 9.66856 27.7908C6.16856 31.2838 4.00293 36.1303 4.00293 41.3915C4.00293 46.7401 6.16856 51.5866 9.66856 55.0796C13.1686 58.5725 18.0248 60.7338 23.3842 60.7338H106.312C114.669 60.7338 122.303 57.3282 127.772 51.8704C133.35 46.3035 136.74 38.6845 136.74 30.3451C136.74 22.0056 133.328 14.3866 127.772 8.92887C122.303 3.40563 114.669 0 106.312 0H12.3592C10.0842 0 7.91855 0.916901 6.4748 2.4669L6.36543 2.57606C4.92168 4.12606 4.00293 6.06901 4.00293 8.33944C4.00293 10.6099 4.92168 12.662 6.4748 14.212C7.91855 15.762 10.0842 16.6789 12.3592 16.6789H106.422C110.25 16.6789 113.64 18.2289 116.112 20.6958C118.694 23.1627 120.247 26.5683 120.247 30.3669C120.247 34.1873 118.694 37.5711 116.112 40.1472C113.64 42.6141 110.228 44.1641 106.422 44.1641H27.7154Z" fill="#FF9059"/>
<path d="M102.812 66.0319C102.812 66.0319 116.549 81.5536 118.313 110.076C120.077 138.715 107.774 152.93 107.774 152.93C107.774 152.93 111.323 159.862 119.746 148.355C128.279 136.848 147.683 149.522 160.229 134.631C172.863 119.716 174.097 124.057 174.097 124.057C174.097 124.057 177.868 116.658 169.996 113.834C162.014 111.01 179.081 82.4872 163.227 68.7628C147.374 55.1551 143.89 39.1666 142.721 41.7574C129.668 70.56 107.134 67.7124 102.812 66.0319Z" fill="#6D84F2"/>
<path d="M124.612 106.972C124.612 106.972 132.297 123.475 145.643 123.852C164.062 124.371 164.062 114.257 164.062 114.257C164.062 114.257 162.408 131.019 143.989 134.343C125.57 137.667 122.5 139.718 122.5 139.718C122.5 139.718 128.618 118.995 124.612 106.972Z" fill="#4361EE"/>
<path d="M164.062 76.4085C164.062 76.4085 161.109 65.1045 148.553 63.4967C135.997 61.8889 129.062 71.1893 129.062 71.1893C129.062 71.1893 149.953 61.3447 164.062 76.4085Z" fill="#4361EE"/>
</svg>
