<svg width="80" height="80" viewBox="0 0 80 80" fill="none" xmlns="http://www.w3.org/2000/svg">
<rect width="80" height="80" fill="white"/>
<path fill-rule="evenodd" clip-rule="evenodd" d="M45.8 43.39C46.46 43.39 47.03 43.96 47.03 44.62C47.03 45.33 46.46 45.89 45.8 45.89H13.87C12.83 45.89 11.84 46.31 11.18 46.97V47.02C10.47 47.68 10.05 48.62 10.05 49.71C10.05 50.75 10.47 51.69 11.18 52.35C11.89 53.06 12.83 53.48 13.87 53.48H47.78C50.23 53.48 52.45 52.49 54.05 50.89C55.65 49.29 56.64 47.07 56.64 44.62C56.64 42.21 55.65 40 54.05 38.39C52.45 36.79 50.23 35.75 47.78 35.75H13.91C10.09 35.75 6.6 37.35 4.1 39.85C1.56 42.4 0 45.84 0 49.66C0 53.53 1.56 56.97 4.1 59.52C6.6 62.02 10.09 63.62 13.91 63.62H52.82C53.86 63.62 54.8 63.15 55.51 62.49L55.56 62.44C56.22 61.73 56.64 60.79 56.64 59.8C56.64 58.76 56.22 57.77 55.51 57.11C54.8 56.4 53.86 55.98 52.82 55.98H13.87C12.12 55.98 10.57 55.27 9.39 54.14C8.26 53.01 7.55 51.4 7.55 49.71C7.55 47.96 8.26 46.36 9.39 45.23C10.57 44.1 12.13 43.39 13.87 43.39H45.8Z" fill="#EF570D"/>
<path fill-rule="evenodd" clip-rule="evenodd" d="M12.6701 25.23C12.0101 25.23 11.4401 24.66 11.4401 23.96C11.4401 23.3 12.0101 22.73 12.6701 22.73H48.6501C49.6901 22.73 50.6301 22.31 51.3401 21.6C52.0501 20.94 52.4701 19.95 52.4701 18.91C52.4701 17.87 52.0501 16.93 51.3401 16.22C50.6301 15.56 49.6901 15.14 48.6501 15.14H10.6901C8.24008 15.14 6.02008 16.13 4.42008 17.73C2.82008 19.33 1.83008 21.55 1.83008 23.96C1.83008 26.41 2.82008 28.63 4.42008 30.23C6.02008 31.83 8.24008 32.82 10.6901 32.82H48.6001C52.4201 32.82 55.9101 31.26 58.4101 28.76C60.9601 26.21 62.5101 22.72 62.5101 18.9C62.5101 15.08 60.9501 11.59 58.4101 9.09C55.9101 6.56 52.4201 5 48.6001 5H5.65008C4.61008 5 3.62008 5.42 2.96008 6.13L2.91008 6.18C2.25008 6.89 1.83008 7.78 1.83008 8.82C1.83008 9.86 2.25008 10.8 2.96008 11.51C3.62008 12.22 4.61008 12.64 5.65008 12.64H48.6501C50.4001 12.64 51.9501 13.35 53.0801 14.48C54.2601 15.61 54.9701 17.17 54.9701 18.91C54.9701 20.66 54.2601 22.21 53.0801 23.39C51.9501 24.52 50.3901 25.23 48.6501 25.23H12.6701Z" fill="#FF9059"/>
<path d="M47 35.2469C47 35.2469 53.2796 42.3568 54.086 55.422C54.8923 68.5406 49.2679 75.0518 49.2679 75.0518C49.2679 75.0518 50.8907 78.2272 54.7411 72.9562C58.642 67.6852 67.512 73.4908 73.2473 66.6695C79.0229 59.8376 79.5874 61.8262 79.5874 61.8262C79.5874 61.8262 81.311 58.437 77.7126 57.1433C74.0638 55.8496 81.8654 42.7845 74.6181 36.4978C67.3709 30.2646 65.7783 22.9408 65.2441 24.1276C59.277 37.321 48.9756 36.0167 47 35.2469Z" fill="#6D84F2"/>
<path d="M56.9654 54C56.9654 54 60.4788 61.5594 66.5799 61.7322C75 61.9698 75 57.3369 75 57.3369C75 57.3369 74.2436 65.0151 65.8235 66.5378C57.4034 68.0605 56 69 56 69C56 69 58.7967 59.5076 56.9654 54Z" fill="#4361EE"/>
<path d="M75 40C75 40 73.65 34.822 67.91 34.0856C62.17 33.3491 59 37.6093 59 37.6093C59 37.6093 68.55 33.0998 75 40Z" fill="#4361EE"/>
</svg>
