<svg width="30" height="32" viewBox="0 0 30 32" fill="none" xmlns="http://www.w3.org/2000/svg">
<g id="Frame" clip-path="url(#clip0_1923_1188)">
<g id="Group">
<path id="Vector" d="M4.33918 21.6444H2.31579C1.68421 21.6444 1.08772 21.3794 0.690058 20.9532C0.269006 20.5385 0 19.9856 0 19.3636V2.28078C0 1.67027 0.269006 1.08279 0.701754 0.691145C1.09942 0.264939 1.69591 0 2.31579 0H27.6842C28.3158 0 28.9123 0.264939 29.3099 0.691145C29.7427 1.08279 30.0117 1.67027 30.0117 2.2923V19.3751C30.0117 19.9971 29.7427 20.5846 29.3099 20.9762C28.9123 21.4025 28.3158 21.6674 27.6842 21.6674H22.9123V19.3521H27.6491V2.31534H2.35088V19.329H4.33918V21.6444Z" fill="#4361EE"/>
<path id="Vector_2" d="M24.6318 5.16064H5.36865V7.47598H24.6318V5.16064Z" fill="#4361EE"/>
<path id="Vector_3" d="M24.6314 9.66455H16.1401V11.9799H24.6314V9.66455Z" fill="#4361EE"/>
<path id="Vector_4" d="M24.6314 14.1685H22.4092V16.4838H24.6314V14.1685Z" fill="#4361EE"/>
<path id="Vector_5" d="M13.0295 9.66455H5.36865V11.9799H13.0295V9.66455Z" fill="#4361EE"/>
<path id="Vector_6" d="M18.5028 21.7134C18.5028 24.3628 16.3157 26.5169 13.6256 26.5169C10.9121 26.5169 8.7484 24.3628 8.7484 21.7134C8.7484 19.064 10.9004 16.91 13.6256 16.91C16.3157 16.91 18.5028 19.064 18.5028 21.7134ZM24.07 30.6292C24.07 30.2721 23.9063 29.915 23.6373 29.65L19.9297 25.9985C20.8303 24.7544 21.2864 23.257 21.2864 21.7249C21.2864 17.5435 17.8361 14.1799 13.6256 14.1799C9.37998 14.1799 5.92969 17.5435 5.92969 21.7249C5.92969 25.9064 9.37998 29.2699 13.6256 29.2699C15.1461 29.2699 16.6782 28.8092 17.9414 27.9337L21.6841 31.6198C21.9531 31.8502 22.2806 32.0115 22.6782 32.0115C23.4385 31.9999 24.07 31.3779 24.07 30.6292Z" fill="#EF570D"/>
</g>
</g>
<defs>
<clipPath id="clip0_1923_1188">
<rect width="30" height="32" fill="white"/>
</clipPath>
</defs>
</svg>
