<svg width="56" height="56" viewBox="0 0 56 56" fill="none" xmlns="http://www.w3.org/2000/svg">
<g clip-path="url(#clip0_1720_2564)">
<rect width="56" height="56" fill="white"/>
<path fill-rule="evenodd" clip-rule="evenodd" d="M19.1265 2.10001C19.5197 4.11494 20.6053 5.93098 22.197 7.23672C23.7886 8.54246 25.7873 9.25658 27.8503 9.25658C29.9132 9.25658 31.9118 8.54246 33.5035 7.23672C35.0952 5.93098 36.1807 4.11494 36.574 2.10001L52.7178 5.94096V17.1395H43.3024V32.215C43.0512 32.2567 42.7964 32.2736 42.5419 32.2655C41.7911 32.2737 41.0465 32.129 40.354 31.8402C39.6615 31.5514 39.0356 31.1248 38.515 30.5864C37.7589 29.8327 36.8608 29.2348 35.8722 28.8268C34.8836 28.4189 33.8238 28.2089 32.7535 28.2089C31.6832 28.2089 30.6234 28.4189 29.6348 28.8268C28.6462 29.2348 27.7481 29.8327 26.992 30.5864C26.4727 31.1246 25.8482 31.5512 25.1569 31.84C24.4655 32.1287 23.7221 32.2736 22.9723 32.2655C22.2147 32.2685 21.4641 32.1216 20.7641 31.8334C20.064 31.5451 19.4286 31.1212 18.8947 30.5864C17.3548 29.0635 15.2718 28.2086 13.1006 28.2083C12.8577 28.1972 12.6144 28.2166 12.3764 28.266V17.1395H2.96094V5.94096L19.1265 2.10001Z" fill="#EF570D"/>
<path d="M55.9865 32.6186C54.4617 31.8837 52.7466 31.6334 51.0739 31.9015C49.4012 32.1697 47.852 32.9433 46.6363 34.1175C46.1057 34.6498 45.4745 35.0723 44.779 35.3606C44.0835 35.6489 43.3375 35.7973 42.584 35.7973C41.8306 35.7973 41.0846 35.6489 40.3891 35.3606C39.6936 35.0723 39.0623 34.6498 38.5318 34.1175C36.9865 32.6298 34.9205 31.7981 32.7703 31.7981C30.62 31.7981 28.554 32.6298 27.0088 34.1175C26.4895 34.6557 25.8649 35.0823 25.1736 35.371C24.4823 35.6598 23.7388 35.8046 22.9891 35.7966C22.2315 35.7996 21.4808 35.6527 20.7808 35.3645C20.0808 35.0762 19.4454 34.6523 18.9115 34.1175C17.3657 32.6103 15.2816 31.7757 13.1174 31.7971C12.0594 31.7912 11.0107 31.9931 10.0313 32.3913C9.05198 32.7895 8.16125 33.3761 7.4102 34.1175H7.3595C6.84856 34.6522 6.23419 35.0785 5.55335 35.3707C4.87251 35.663 4.13928 35.8152 3.39778 35.8182C2.21312 35.8215 1.05661 35.459 0.0878906 34.7805V37.5044C1.12919 37.9699 2.25626 38.2153 3.39778 38.2251C4.46124 38.2332 5.51532 38.0266 6.49627 37.6179C7.47722 37.2091 8.36467 36.6067 9.10497 35.847H9.15568C10.2213 34.7828 11.6656 34.1795 13.1753 34.1679C14.7007 34.1865 16.1605 34.7876 17.2529 35.847C18.0037 36.6009 18.8972 37.1993 19.8818 37.6076C20.8663 38.016 21.9224 38.2263 22.9891 38.2263C24.0558 38.2263 25.1119 38.016 26.0964 37.6076C27.081 37.1993 27.9744 36.6009 28.7253 35.847C29.8102 34.7776 31.2757 34.1777 32.8029 34.1777C34.33 34.1777 35.7955 34.7776 36.8805 35.847C37.6318 36.5923 38.5234 37.1828 39.5044 37.5847C40.4854 37.9867 41.5364 38.1922 42.5973 38.1895C43.6582 38.1868 44.7081 37.976 45.687 37.5691C46.6659 37.1622 47.5546 36.5672 48.3021 35.8182C49.3962 34.7613 50.8549 34.1606 52.3797 34.1391C53.7003 34.1398 54.98 34.5956 56.001 35.429L55.9865 32.6186Z" fill="#4361EE"/>
<path d="M55.9855 37.9801C54.8624 37.4165 53.6221 37.1228 52.3642 37.1225C50.2044 37.1268 48.1343 37.9818 46.6063 39.5006C46.0743 40.0303 45.4426 40.4505 44.7473 40.7372C44.052 41.0239 43.3067 41.1714 42.5541 41.1714C41.8014 41.1714 41.0562 41.0239 40.3609 40.7372C39.6656 40.4505 39.0339 40.0303 38.5018 39.5006C37.7457 38.7469 36.8476 38.149 35.859 37.741C34.8704 37.333 33.8106 37.1231 32.7403 37.1231C31.67 37.1231 30.6103 37.333 29.6216 37.741C28.633 38.149 27.7349 38.7469 26.9788 39.5006C26.4581 40.0364 25.8332 40.461 25.142 40.7484C24.4509 41.0359 23.7082 41.1802 22.9591 41.1724C22.2022 41.1752 21.4522 41.0289 20.7524 40.742C20.0526 40.4551 19.4167 40.0331 18.8815 39.5006C17.3434 37.975 15.2593 37.1196 13.0874 37.1225C12.0257 37.1257 10.975 37.3375 9.99562 37.7456C9.01626 38.1536 8.12748 38.75 7.38024 39.5006H7.32954C6.80861 40.0361 6.18359 40.4604 5.49253 40.7479C4.80148 41.0353 4.05886 41.1797 3.30989 41.1724C2.12523 41.1758 0.96872 40.8132 0 40.1347V42.8443C1.49296 43.5241 3.16055 43.7283 4.77461 43.429C6.38868 43.1297 7.87041 42.3416 9.01708 41.1724H9.06777C10.1341 40.1102 11.5786 39.5094 13.0874 39.5006C14.6119 39.5164 16.0719 40.1151 17.165 41.1724C17.9149 41.928 18.808 42.528 19.7927 42.9375C20.7774 43.3469 21.834 43.5578 22.9012 43.5578C23.9684 43.5578 25.025 43.3469 26.0097 42.9375C26.9944 42.528 27.8875 41.928 28.6374 41.1724C29.7224 40.1031 31.1878 39.5032 32.715 39.5032C34.2422 39.5032 35.7076 40.1031 36.7926 41.1724C37.5418 41.9278 38.4343 42.5276 39.4184 42.937C40.4025 43.3464 41.4585 43.5572 42.5251 43.5572C43.5917 43.5572 44.6477 43.3464 45.6318 42.937C46.6159 42.5276 47.5084 41.9278 48.2576 41.1724C49.3524 40.1176 50.8114 39.5194 52.3353 39.5006C53.6559 39.5013 54.9355 39.9571 55.9566 40.7905L55.9855 37.9801Z" fill="#A0B0FD"/>
<path d="M55.9865 43.4208C54.865 42.8519 53.624 42.5556 52.3652 42.556C50.2062 42.5642 48.1375 43.4186 46.6073 44.9341C46.0767 45.4664 45.4455 45.8889 44.75 46.1772C44.0545 46.4655 43.3085 46.6139 42.5551 46.6139C41.8016 46.6139 41.0556 46.4655 40.3601 46.1772C39.6646 45.8889 39.0334 45.4664 38.5028 44.9341C37.7467 44.1804 36.8486 43.5825 35.86 43.1745C34.8713 42.7666 33.8116 42.5566 32.7413 42.5566C31.671 42.5566 30.6112 42.7666 29.6226 43.1745C28.634 43.5825 27.7359 44.1804 26.9798 44.9341C26.4605 45.4722 25.836 45.8989 25.1446 46.1876C24.4533 46.4764 23.7099 46.6212 22.9601 46.6132C22.2025 46.6162 21.4519 46.4693 20.7518 46.1811C20.0518 45.8928 19.4164 45.4689 18.8825 44.9341C17.3426 43.4112 15.2596 42.5563 13.0884 42.556C10.9446 42.5657 8.89222 43.4209 7.38122 44.9341H7.33052C6.82234 45.464 6.2124 45.8869 5.53684 46.1778C4.86128 46.4687 4.13387 46.6217 3.39778 46.6276C2.21312 46.6309 1.05661 46.2684 0.0878906 45.5899V48.2922C1.12831 48.7603 2.25595 49.0058 3.39778 49.0128C4.45955 49.0096 5.51024 48.7979 6.4896 48.3898C7.46896 47.9817 8.35773 47.3853 9.10497 46.6348H9.15568C9.6752 46.097 10.2998 45.6706 10.9911 45.3818C11.6823 45.0931 12.4257 44.9481 13.1753 44.9557C13.933 44.9519 14.6839 45.0984 15.3841 45.3867C16.0842 45.675 16.7195 46.0993 17.2529 46.6348C18.0037 47.3887 18.8972 47.987 19.8818 48.3954C20.8663 48.8038 21.9224 49.0141 22.9891 49.0141C24.0558 49.0141 25.1119 48.8038 26.0964 48.3954C27.081 47.987 27.9744 47.3887 28.7253 46.6348C29.8102 45.5654 31.2757 44.9655 32.8029 44.9655C34.33 44.9655 35.7955 45.5654 36.8805 46.6348C37.6304 47.3815 38.5209 47.9736 39.5011 48.3775C40.4813 48.7813 41.5319 48.9888 42.5928 48.9881C43.6537 48.9874 44.704 48.7786 45.6837 48.3735C46.6634 47.9685 47.5531 47.3752 48.3021 46.6276C48.8362 46.0931 49.4717 45.6694 50.1716 45.3812C50.8716 45.0929 51.6221 44.9459 52.3797 44.9485C53.7005 44.9336 54.9838 45.3856 56.001 46.224L55.9865 43.4208Z" fill="#4361EE"/>
<path d="M55.9855 48.8255C54.8624 48.2619 53.6221 47.9682 52.3642 47.9679C50.2044 47.9722 48.1343 48.8272 46.6063 50.346C46.0758 50.8783 45.4445 51.3008 44.749 51.5891C44.0535 51.8774 43.3075 52.0259 42.5541 52.0259C41.8006 52.0259 41.0546 51.8774 40.3591 51.5891C39.6636 51.3008 39.0324 50.8783 38.5018 50.346C37.7457 49.5924 36.8476 48.9944 35.859 48.5864C34.8704 48.1785 33.8106 47.9685 32.7403 47.9685C31.67 47.9685 30.6103 48.1785 29.6216 48.5864C28.633 48.9944 27.7349 49.5924 26.9788 50.346C25.9141 51.4116 24.4692 52.0151 22.9591 52.0251C21.4341 52.0051 19.9748 51.4042 18.8815 50.346C17.3434 48.8204 15.2593 47.965 13.0874 47.9679C12.0257 47.9712 10.975 48.1829 9.99562 48.591C9.01626 48.9991 8.12748 49.5955 7.38024 50.346H7.32954C6.26395 51.4103 4.81965 52.0136 3.30989 52.0251C2.12428 52.0133 0.970161 51.6439 0 50.9658V53.6897C1.4933 54.3652 3.15912 54.5677 4.77194 54.27C6.38476 53.9722 7.8667 53.1886 9.01708 52.0251H9.06777C9.58729 51.4873 10.2119 51.0609 10.9032 50.7721C11.5944 50.4834 12.3378 50.3384 13.0874 50.346C13.8452 50.3422 14.596 50.4887 15.2962 50.777C15.9963 51.0653 16.6317 51.4896 17.165 52.0251C17.9159 52.779 18.8093 53.3774 19.7939 53.7857C20.7784 54.1941 21.8345 54.4044 22.9012 54.4044C23.9679 54.4044 25.024 54.1941 26.0085 53.7857C26.9931 53.3774 27.8866 52.779 28.6374 52.0251C29.7224 50.9557 31.1878 50.3558 32.715 50.3558C34.2422 50.3558 35.7076 50.9557 36.7926 52.0251C37.5427 52.7787 38.4356 53.377 39.4196 53.7853C40.4035 54.1935 41.459 54.4038 42.5251 54.4038C43.5912 54.4038 44.6467 54.1935 45.6306 53.7853C46.6146 53.377 47.5075 52.7787 48.2576 52.0251C48.7918 51.4906 49.4272 51.0669 50.1272 50.7787C50.8272 50.4904 51.5777 50.3434 52.3353 50.346C53.6553 50.3284 54.9387 50.7779 55.9566 51.6143L55.9855 48.8255Z" fill="#A0B0FD"/>
</g>
<defs>
<clipPath id="clip0_1720_2564">
<rect width="56" height="56" fill="white"/>
</clipPath>
</defs>
</svg>
