<svg width="80" height="76" viewBox="0 0 80 76" fill="none" xmlns="http://www.w3.org/2000/svg">
<path fill-rule="evenodd" clip-rule="evenodd" d="M0 5.16L23.57 0L39.96 15.56L56.43 0.00999999L80 5.16V24.31H65.36V33.24C42.62 34.53 25.59 43.37 14.64 58.92V24.31H0V5.16Z" fill="#EF570D"/>
<path fill-rule="evenodd" clip-rule="evenodd" d="M70.0599 44.75C46.1199 43.65 31.7599 52.76 24.3999 69.61C38.0199 69.61 51.6499 69.61 65.3699 69.61C66.8399 66.48 70.1599 64.09 75.3099 64.27C73.5599 57.73 71.8099 51.19 70.0599 44.75ZM65.9099 58.65C67.4799 58.65 68.7599 59.94 68.7599 61.5C68.7599 63.06 67.4699 64.35 65.9099 64.35C64.3399 64.35 63.0599 63.06 63.0599 61.5C63.0599 59.94 64.3499 58.65 65.9099 58.65ZM43.5399 61.04C48.5999 61.04 53.5699 61.04 58.6399 61.04C59.2799 58.55 61.2199 56.99 63.7999 55.88C63.4299 54.68 63.1599 53.39 62.7899 52.2C62.7799 52.2 45.8499 51.38 43.5399 61.04Z" fill="#4361EE"/>
<path fill-rule="evenodd" clip-rule="evenodd" d="M33.23 48.43L41.06 43.92C41.89 43.37 42.99 43.74 43.55 44.56C44.01 45.39 43.73 46.49 42.81 46.95L35.08 51.46C34.16 52.01 33.15 51.64 32.59 50.82C32.13 49.99 32.41 48.89 33.23 48.43Z" fill="#4361EE"/>
<path fill-rule="evenodd" clip-rule="evenodd" d="M23.6601 72.09H76.8701L77.5101 75.03H22.3701L23.6601 72.09Z" fill="#EF570D"/>
</svg>
