<svg width="32" height="32" viewBox="0 0 32 32" fill="none" xmlns="http://www.w3.org/2000/svg">
<g id="Frame 8997" clip-path="url(#clip0_1957_1276)">
<rect width="32" height="32" fill="white"/>
<g id="Group">
<path id="Vector" d="M15.4119 31C6.91171 31 0 24.0488 0 15.5C0 6.95122 6.91171 0 15.4119 0C17.4612 0 19.4619 0.402439 21.3535 1.19512C22.1781 1.54878 22.5783 2.5 22.2266 3.32927C21.8871 4.15854 20.9291 4.56098 20.1046 4.20732C18.6252 3.58537 17.0489 3.26829 15.424 3.26829C8.71845 3.26829 3.26184 8.7561 3.26184 15.5C3.26184 22.2439 8.71845 27.7317 15.424 27.7317C22.1296 27.7317 27.5862 22.2439 27.5862 15.5C27.5862 14.5976 28.3138 13.8659 29.2111 13.8659C30.1084 13.8659 30.8359 14.5976 30.8359 15.5C30.8238 24.0488 23.9121 31 15.4119 31Z" fill="#4361EE"/>
</g>
<g id="Group_2">
<path id="Vector_2" d="M15.9939 20.6953C15.9454 20.6953 15.8847 20.6953 15.8362 20.6953C14.7813 20.6465 13.787 20.1587 13.1201 19.3416L8.34249 13.8172C7.56644 12.9026 7.65132 11.5245 8.56075 10.7318C9.45806 9.95135 10.8283 10.0367 11.6165 10.9514L16.006 16.0245L28.2288 2.26842C29.0291 1.36599 30.3993 1.29282 31.2845 2.09769C32.1818 2.90257 32.2546 4.28062 31.4543 5.17086L18.7343 19.4879C17.9583 20.2806 17.0003 20.6953 15.9939 20.6953ZM16.4183 16.5001C16.4183 16.5001 16.4183 16.5123 16.4183 16.5001V16.5001Z" fill="#EF570D"/>
</g>
</g>
<defs>
<clipPath id="clip0_1957_1276">
<rect width="32" height="32" fill="white"/>
</clipPath>
</defs>
</svg>
