<svg width="75" height="80" viewBox="0 0 75 80" fill="none" xmlns="http://www.w3.org/2000/svg">
<path fill-rule="evenodd" clip-rule="evenodd" d="M0 26.3316L21.9665 21.6216L37.33 35.8798L52.6281 21.6216L74.5946 26.3316V43.8579H60.9636V80H13.631V43.8579H0V26.3316Z" fill="#EF570D"/>
<path d="M24.8647 20.3061C28.7848 18.8487 33.0013 17.3589 34.9449 16.6464V12.6953C33.726 12.4038 32.7048 11.8533 31.8484 11.0437C30.6295 9.84539 29.9707 8.19366 29.9707 6.44481C29.9707 4.69595 30.6295 3.04431 31.8484 1.94319C33.0672 0.7449 34.6483 0 36.526 0C38.0084 0 39.3261 0.453382 40.4461 1.39258C41.5661 2.23462 42.4226 3.40058 42.7849 4.79318L39.6885 5.63515C39.4908 4.89027 39.1284 4.24262 38.5684 3.88637C38.0084 3.43297 37.2507 3.14146 36.526 3.14146C35.6037 3.14146 34.7472 3.4977 34.0884 4.14542C33.5284 4.69598 33.166 5.53799 33.166 6.44481C33.166 7.35162 33.5284 8.19372 34.0884 8.84144C34.7472 9.39201 35.5707 9.74825 36.526 9.74825H38.1073V16.6464C40.0838 17.3913 44.5638 18.8487 48.6485 20.3061L46.0462 22.7027C42.0273 21.3101 37.9096 19.8527 36.526 19.3993C35.1095 19.8527 31.2883 21.2453 27.3682 22.7027L24.8647 20.3061Z" fill="#4361EE"/>
</svg>
