<svg width="80" height="80" viewBox="0 0 80 80" fill="none" xmlns="http://www.w3.org/2000/svg">
<g clip-path="url(#clip0_635_272)">
<rect width="80" height="80" fill="white"/>
<path d="M5.33337 18.1846V75.054C5.33337 77.7644 7.56922 80.0002 10.2796 80.0002H69.8755C72.61 80.0002 74.8217 77.7644 74.8217 75.054V18.1846H5.33337Z" fill="#4361EE"/>
<path d="M71.7413 72.77H39.9327V74.3625H71.7413V72.77Z" fill="white"/>
<path d="M34.7613 72.77H29.1476V74.3625H34.7613V72.77Z" fill="#F37C43"/>
<path d="M24.4105 72.77H18.8209V74.3625H24.4105V72.77Z" fill="#F37C43"/>
<path d="M14.0275 72.77H8.4137V74.3625H14.0275V72.77Z" fill="#F37C43"/>
<path d="M40.0775 66.5691C51.297 66.5691 60.4173 57.4487 60.4173 46.2293C60.4173 35.0339 51.297 25.9136 40.0775 25.9136C28.8822 25.9136 19.7618 35.0339 19.7618 46.2293C19.7618 57.4487 28.8822 66.5691 40.0775 66.5691Z" fill="#6D84F2"/>
<path d="M74.8217 16.1496V4.94622C74.8217 2.23585 72.5858 0 69.8755 0H10.2796C7.5451 0 5.33337 2.23585 5.33337 4.94622V16.1576H74.8217V16.1496Z" fill="#EF570D"/>
<path d="M65.4762 11.911C67.2777 11.911 68.7334 10.4553 68.7334 8.65375C68.7334 6.87633 67.2777 5.39648 65.4762 5.39648C63.6987 5.39648 62.2189 6.87633 62.2189 8.65375C62.2109 10.4473 63.6987 11.911 65.4762 11.911Z" fill="#F37C43"/>
<path d="M13.6092 6.66748H29.4049C30.4987 6.66748 31.3915 7.56021 31.3915 8.65401C31.3915 9.74781 30.4987 10.6566 29.4049 10.6566H13.6092C12.5154 10.6566 11.6227 9.74781 11.6227 8.65401C11.6227 7.55217 12.5154 6.66748 13.6092 6.66748Z" fill="white"/>
<path fill-rule="evenodd" clip-rule="evenodd" d="M39.7397 10.1092C40.5359 10.1092 41.1793 9.44972 41.1793 8.6535C41.1793 7.85728 40.5439 7.21387 39.7397 7.21387C38.9354 7.21387 38.2839 7.84923 38.2839 8.6535C38.2839 9.45776 38.9354 10.1092 39.7397 10.1092Z" fill="white"/>
<path fill-rule="evenodd" clip-rule="evenodd" d="M45.6431 10.1092C46.4393 10.1092 47.0827 9.44972 47.0827 8.6535C47.0827 7.85728 46.4474 7.21387 45.6431 7.21387C44.8388 7.21387 44.1874 7.84923 44.1874 8.6535C44.1874 9.45776 44.8388 10.1092 45.6431 10.1092Z" fill="white"/>
<path fill-rule="evenodd" clip-rule="evenodd" d="M51.5463 10.1092C52.3425 10.1092 53.002 9.44972 53.002 8.6535C53.002 7.85728 52.3425 7.21387 51.5463 7.21387C50.7501 7.21387 50.1067 7.84923 50.1067 8.6535C50.1067 9.45776 50.7501 10.1092 51.5463 10.1092Z" fill="white"/>
<path d="M40.0776 62.6521C49.1256 62.6521 56.4926 55.285 56.4926 46.2371C56.4926 37.2052 49.1256 29.8462 40.0776 29.8462C31.0458 29.8462 23.6868 37.2132 23.6868 46.2371C23.6868 55.285 31.0538 62.6521 40.0776 62.6521Z" fill="white"/>
<path fill-rule="evenodd" clip-rule="evenodd" d="M52.9779 44.0654C53.1146 44.7731 53.1629 45.505 53.1629 46.2289C53.1629 53.4753 47.2998 59.3383 40.0775 59.3383C32.8553 59.3383 26.9922 53.4753 26.9922 46.2289C26.9922 45.497 27.0646 44.7731 27.1772 44.0654C29.4371 42.2397 33.9249 41.4194 40.0775 46.2289C46.2302 51.0705 50.3158 47.3066 52.9779 44.0654Z" fill="#6D84F2"/>
</g>
<defs>
<clipPath id="clip0_635_272">
<rect width="80" height="80" fill="white"/>
</clipPath>
</defs>
</svg>
