<svg width="80" height="80" viewBox="0 0 80 80" fill="none" xmlns="http://www.w3.org/2000/svg">
<rect width="80" height="80" fill="white"/>
<path fill-rule="evenodd" clip-rule="evenodd" d="M24.3259 62.51C26.7059 62.51 28.5859 60.57 28.5859 58.19C28.5859 55.81 26.6959 53.93 24.3259 53.93C21.9459 53.93 20.0659 55.82 20.0659 58.19C20.0659 60.57 21.9559 62.51 24.3259 62.51Z" fill="#6D84F2"/>
<path fill-rule="evenodd" clip-rule="evenodd" d="M55.7459 31.2C56.9359 31.2 57.9059 30.23 57.9059 29.04C57.9059 27.91 56.9359 26.93 55.7459 26.93C54.5559 26.93 53.5859 27.9 53.5859 29.04C53.5859 30.23 54.5559 31.2 55.7459 31.2Z" fill="#6D84F2"/>
<path fill-rule="evenodd" clip-rule="evenodd" d="M49.586 44.48C50.776 44.48 51.746 43.51 51.746 42.37C51.746 41.18 50.776 40.21 49.586 40.21C48.396 40.21 47.426 41.18 47.426 42.37C47.436 43.51 48.406 44.48 49.586 44.48Z" fill="#6D84F2"/>
<path d="M61.686 28.5C62.066 26.99 63.626 26.07 65.196 26.5C66.706 26.93 67.576 28.5 67.196 30.01L61.096 52.41C58.886 52.73 56.836 53.17 54.836 53.71L61.686 28.5ZM30.696 71.85H16.656C15.306 71.85 14.176 70.88 13.846 69.64L3.10602 30.02C2.67602 28.51 3.59602 26.94 5.10602 26.51C6.61602 26.08 8.18603 27 8.61603 28.51L18.816 66.13H34.796C33.286 67.85 31.936 69.8 30.696 71.85Z" fill="#4361EE"/>
<path fill-rule="evenodd" clip-rule="evenodd" d="M9.91602 3.29001L27.996 0C28.376 3.62 31.446 6.37 35.126 6.37C38.846 6.37 41.876 3.62 42.306 0L60.386 3.29001V15.38H51.156V30.66C50.456 30.5 49.646 30.39 48.886 30.39C43.596 30.39 39.226 34.33 38.466 39.4C36.356 38.64 33.986 38.81 31.986 39.89C30.416 35.63 26.376 32.6 21.626 32.6C20.766 32.6 19.896 32.71 19.146 32.87V15.38H9.91602V3.29001Z" fill="#EF570D"/>
<path fill-rule="evenodd" clip-rule="evenodd" d="M14.876 37.25C15.686 36.66 16.656 36.17 17.626 35.85C18.596 35.53 19.626 35.31 20.706 35.31C23.356 35.31 25.776 36.44 27.506 38.17C28.906 39.57 29.886 41.35 30.206 43.41C30.796 42.98 31.396 42.6 32.046 42.28C33.286 41.69 34.696 41.36 36.206 41.36C37.236 41.36 38.206 41.47 39.116 41.79C39.496 41.9 39.816 42.01 40.146 42.17C40.256 39.63 41.336 37.37 43.006 35.69C44.736 33.91 47.166 32.83 49.866 32.83C51.216 32.83 52.516 33.1 53.646 33.64C54.886 34.13 55.966 34.94 56.886 35.85L55.486 37.15C54.786 36.39 53.916 35.8 52.896 35.37C51.976 34.99 50.956 34.72 49.876 34.72C47.716 34.72 45.776 35.64 44.366 37.04C42.956 38.44 42.096 40.39 42.096 42.49C42.096 42.71 42.096 42.92 42.096 43.14C42.096 43.36 42.146 43.57 42.146 43.73L42.526 45.94L40.686 44.64C40.036 44.21 39.336 43.83 38.526 43.61C37.826 43.34 37.016 43.23 36.206 43.23C35.016 43.23 33.826 43.5 32.856 43.99C31.776 44.48 30.856 45.23 30.156 46.1L28.316 48.37C28.366 47.24 28.426 46.1 28.476 45.02C28.476 42.86 27.616 40.92 26.206 39.51C24.806 38.11 22.856 37.24 20.696 37.24C19.836 37.24 18.966 37.35 18.216 37.62C17.406 37.89 16.706 38.27 16.006 38.75L14.876 37.25Z" fill="#4361EE"/>
<path fill-rule="evenodd" clip-rule="evenodd" d="M28.266 29.47C25.886 29.69 23.836 27.96 23.626 25.58C23.466 23.26 25.196 21.21 27.516 20.99C29.836 20.77 31.946 22.5 32.156 24.82C32.316 27.21 30.586 29.26 28.266 29.47Z" fill="#FEFEFE"/>
<path fill-rule="evenodd" clip-rule="evenodd" d="M71.5661 54.14C51.1061 53.22 38.7461 61 32.5361 75.35C44.1961 75.35 55.8561 75.35 67.5161 75.35C68.8161 72.7 71.6761 70.71 76.0461 70.82C74.5261 65.26 73.0761 59.7 71.5661 54.14Z" fill="#EF570D"/>
<path fill-rule="evenodd" clip-rule="evenodd" d="M48.886 68.12C53.206 68.12 57.466 68.12 61.736 68.12C62.386 66.01 64.006 64.61 66.216 63.69C65.896 62.61 65.626 61.53 65.356 60.51C65.356 60.51 50.836 59.81 48.886 68.12Z" fill="#FEFEFE"/>
<path fill-rule="evenodd" clip-rule="evenodd" d="M40.086 57.27L46.776 53.44C47.476 53.01 48.396 53.28 48.826 53.98C49.256 54.74 48.986 55.65 48.286 56.09L41.596 59.92C40.896 60.35 39.926 60.08 39.546 59.38C39.116 58.62 39.336 57.71 40.086 57.27Z" fill="#FF9059"/>
<path fill-rule="evenodd" clip-rule="evenodd" d="M31.8261 77.52H77.3961L77.9261 80H30.7561L31.8261 77.52Z" fill="#FF9059"/>
<path fill-rule="evenodd" clip-rule="evenodd" d="M67.9959 70.88C69.3459 70.88 70.4259 69.8 70.4259 68.45C70.4259 67.15 69.3459 66.02 67.9959 66.02C66.6459 66.02 65.5659 67.15 65.5659 68.45C65.5659 69.8 66.6459 70.88 67.9959 70.88Z" fill="#FEFEFE"/>
</svg>
