<svg width="156" height="156" viewBox="0 0 156 156" fill="none" xmlns="http://www.w3.org/2000/svg">
<path fill-rule="evenodd" clip-rule="evenodd" d="M53.2841 0C54.3796 5.61259 57.4036 10.6712 61.8375 14.3083C66.2715 17.9454 71.8392 19.9346 77.586 19.9346C83.3327 19.9346 88.9004 17.9454 93.3344 14.3083C97.7683 10.6712 100.792 5.61259 101.888 0L146.86 10.699V41.8925H120.631V83.8853C119.931 84.0013 119.222 84.0484 118.513 84.0258C116.421 84.0487 114.347 83.6456 112.418 82.8412C110.489 82.0369 108.745 80.8484 107.295 79.3488C105.189 77.2494 102.687 75.5839 99.9328 74.4475C97.1787 73.3111 94.2265 72.7262 91.245 72.7262C88.2635 72.7262 85.3113 73.3111 82.5572 74.4475C79.8032 75.5839 77.3014 77.2494 75.1951 79.3488C73.7486 80.8478 72.0088 82.0362 70.0829 82.8406C68.1571 83.645 66.086 84.0483 63.9975 84.0258C61.887 84.0343 59.796 83.6252 57.8459 82.8222C55.8958 82.0193 54.1256 80.8386 52.6384 79.3488C48.3486 75.1067 42.5461 72.7254 36.4977 72.7247C35.8211 72.6938 35.1432 72.7477 34.4801 72.8853V41.8925H8.25146V10.699L53.2841 0Z" fill="#EF570D"/>
<path d="M155.959 87.2935C151.712 85.2466 146.934 84.5492 142.274 85.2961C137.615 86.0431 133.299 88.1981 129.912 91.4688C128.434 92.9514 126.676 94.1283 124.738 94.9314C122.801 95.7345 120.723 96.148 118.624 96.148C116.525 96.148 114.447 95.7345 112.509 94.9314C110.572 94.1283 108.813 92.9514 107.335 91.4688C103.031 87.3248 97.2753 85.0081 91.2854 85.0081C85.2955 85.0081 79.5402 87.3248 75.2355 91.4688C73.789 92.9678 72.0492 94.1561 70.1233 94.9605C68.1975 95.7649 66.1264 96.1682 64.0379 96.1458C61.9274 96.1542 59.8364 95.7451 57.8863 94.9422C55.9362 94.1392 54.1661 92.9586 52.6789 91.4688C48.3727 87.2705 42.5669 84.9456 36.5382 85.0052C33.591 84.9888 30.6695 85.5513 27.9413 86.6604C25.2131 87.7696 22.7318 89.4036 20.6396 91.4688H20.4983C19.075 92.9581 17.3635 94.1455 15.4669 94.9596C13.5703 95.7737 11.5277 96.1977 9.4621 96.206C6.16198 96.2154 2.94028 95.2054 0.241699 93.3154V100.903C3.14246 102.2 6.28214 102.883 9.4621 102.91C12.4246 102.933 15.361 102.358 18.0936 101.219C20.8263 100.08 23.2984 98.4024 25.3607 96.2863H25.502C28.4704 93.3219 32.4938 91.6413 36.6996 91.6092C40.9487 91.6609 45.0154 93.3354 48.0586 96.2863C50.1502 98.3862 52.6391 100.053 55.3818 101.191C58.1244 102.328 61.0664 102.914 64.0379 102.914C67.0093 102.914 69.9514 102.328 72.694 101.191C75.4367 100.053 77.9257 98.3862 80.0172 96.2863C83.0397 93.3076 87.1219 91.6365 91.3762 91.6365C95.6305 91.6365 99.7128 93.3076 102.735 96.2863C104.828 98.3622 107.312 100.007 110.045 101.127C112.778 102.246 115.705 102.819 118.661 102.811C121.616 102.804 124.541 102.217 127.268 101.083C129.995 99.9498 132.47 98.2924 134.553 96.206C137.6 93.262 141.664 91.5888 145.912 91.529C149.591 91.5309 153.155 92.8005 156 95.122L155.959 87.2935Z" fill="#4361EE"/>
<path d="M155.96 104.902C152.831 103.332 149.376 102.514 145.872 102.513C139.855 102.525 134.088 104.907 129.832 109.137C128.35 110.613 126.59 111.783 124.653 112.582C122.716 113.38 120.64 113.791 118.543 113.791C116.447 113.791 114.371 113.38 112.434 112.582C110.497 111.783 108.737 110.613 107.255 109.137C105.149 107.038 102.647 105.372 99.8929 104.236C97.1389 103.1 94.1867 102.515 91.2052 102.515C88.2237 102.515 85.2714 103.1 82.5174 104.236C79.7633 105.372 77.2616 107.038 75.1552 109.137C73.7048 110.63 71.9638 111.813 70.0385 112.613C68.1133 113.414 66.0442 113.816 63.9576 113.794C61.8491 113.802 59.7598 113.395 57.8103 112.595C55.8607 111.796 54.0895 110.621 52.5986 109.137C48.3137 104.888 42.508 102.505 36.4579 102.513C33.5001 102.522 30.5732 103.112 27.8449 104.249C25.1167 105.385 22.6408 107.047 20.5592 109.137H20.418C18.9668 110.629 17.2257 111.811 15.3006 112.612C13.3755 113.412 11.3068 113.815 9.2204 113.794C5.92028 113.804 2.69858 112.794 0 110.904V118.451C4.15895 120.345 8.80438 120.914 13.3007 120.08C17.797 119.246 21.9247 117.051 25.119 113.794H25.2602C28.2307 110.835 32.2545 109.162 36.4579 109.137C40.7047 109.182 44.7717 110.849 47.8169 113.794C49.9057 115.899 52.3938 117.57 55.1368 118.711C57.8799 119.851 60.8232 120.439 63.7962 120.439C66.7691 120.439 69.7126 119.851 72.4556 118.711C75.1986 117.57 77.6867 115.899 79.7755 113.794C82.798 110.816 86.8803 109.145 91.1346 109.145C95.3889 109.145 99.4711 110.816 102.494 113.794C104.581 115.898 107.067 117.569 109.808 118.71C112.55 119.85 115.491 120.437 118.463 120.437C121.434 120.437 124.376 119.85 127.117 118.71C129.859 117.569 132.345 115.898 134.432 113.794C137.482 110.856 141.546 109.19 145.791 109.137C149.47 109.139 153.035 110.409 155.879 112.73L155.96 104.902Z" fill="#A0B0FD"/>
<path d="M155.959 122.731C152.835 121.147 149.378 120.321 145.871 120.322C139.857 120.345 134.094 122.725 129.831 126.946C128.354 128.429 126.595 129.606 124.658 130.409C122.72 131.212 120.642 131.626 118.543 131.626C116.444 131.626 114.366 131.212 112.429 130.409C110.491 129.606 108.733 128.429 107.255 126.946C105.148 124.847 102.647 123.182 99.8925 122.045C97.1385 120.909 94.1863 120.324 91.2048 120.324C88.2233 120.324 85.271 120.909 82.517 122.045C79.7629 123.182 77.2612 124.847 75.1548 126.946C73.7083 128.446 71.9685 129.634 70.0426 130.438C68.1168 131.243 66.0458 131.646 63.9572 131.624C61.8468 131.632 59.7556 131.223 57.8056 130.42C55.8555 129.617 54.0854 128.436 52.5982 126.946C48.3083 122.704 42.5058 120.323 36.4575 120.322C30.4855 120.349 24.768 122.732 20.5588 126.946H20.4176C19.002 128.422 17.3028 129.601 15.4209 130.411C13.539 131.221 11.5126 131.647 9.4621 131.664C6.16198 131.673 2.94028 130.663 0.241699 128.773V136.301C3.14002 137.604 6.28128 138.288 9.4621 138.308C12.4199 138.299 15.3468 137.709 18.075 136.572C20.8032 135.436 23.2791 133.774 25.3607 131.684H25.502C26.9492 130.186 28.6892 128.998 30.6148 128.194C32.5405 127.389 34.6112 126.985 36.6996 127.007C38.8103 126.996 40.9021 127.404 42.8525 128.207C44.8029 129.01 46.5727 130.192 48.0586 131.684C50.1502 133.784 52.6391 135.45 55.3818 136.588C58.1244 137.726 61.0664 138.311 64.0379 138.311C67.0093 138.311 69.9514 137.726 72.694 136.588C75.4367 135.45 77.9257 133.784 80.0172 131.684C83.0397 128.705 87.1219 127.034 91.3762 127.034C95.6305 127.034 99.7128 128.705 102.735 131.684C104.824 133.764 107.305 135.413 110.036 136.538C112.766 137.663 115.693 138.241 118.648 138.239C121.603 138.237 124.529 137.655 127.259 136.527C129.988 135.399 132.466 133.746 134.553 131.664C136.041 130.175 137.811 128.995 139.761 128.192C141.711 127.389 143.801 126.979 145.912 126.987C149.591 126.945 153.166 128.204 156 130.54L155.959 122.731Z" fill="#4361EE"/>
<path d="M155.96 140.46C152.831 138.89 149.376 138.072 145.872 138.071C139.855 138.083 134.088 140.465 129.832 144.695C128.354 146.178 126.595 147.355 124.658 148.158C122.72 148.961 120.642 149.375 118.543 149.375C116.445 149.375 114.366 148.961 112.429 148.158C110.492 147.355 108.733 146.178 107.255 144.695C105.149 142.596 102.647 140.931 99.8929 139.794C97.1389 138.658 94.1867 138.073 91.2052 138.073C88.2237 138.073 85.2714 138.658 82.5174 139.794C79.7633 140.931 77.2616 142.596 75.1552 144.695C72.1893 147.664 68.1643 149.345 63.9576 149.372C59.7093 149.317 55.6441 147.643 52.5986 144.695C48.3137 140.446 42.508 138.063 36.4579 138.071C33.5001 138.08 30.5732 138.67 27.8449 139.807C25.1167 140.944 22.6408 142.605 20.5592 144.695H20.418C17.4496 147.66 13.4262 149.34 9.2204 149.372C5.91765 149.34 2.70259 148.311 0 146.422V154.009C4.1599 155.891 8.80039 156.455 13.2933 155.626C17.7861 154.796 21.9144 152.613 25.119 149.372H25.2602C26.7075 147.874 28.4475 146.687 30.3731 145.882C32.2988 145.078 34.3695 144.674 36.4579 144.695C38.5686 144.685 40.6604 145.093 42.6107 145.896C44.5611 146.699 46.331 147.881 47.8169 149.372C49.9085 151.472 52.3974 153.139 55.1401 154.277C57.8828 155.414 60.8247 156 63.7962 156C66.7676 156 69.7097 155.414 72.4523 154.277C75.195 153.139 77.684 151.472 79.7755 149.372C82.798 146.394 86.8803 144.723 91.1346 144.723C95.3889 144.723 99.4711 146.394 102.494 149.372C104.583 151.472 107.071 153.138 109.812 154.275C112.553 155.413 115.493 155.998 118.463 155.998C121.433 155.998 124.373 155.413 127.114 154.275C129.855 153.138 132.342 151.472 134.432 149.372C135.92 147.884 137.69 146.703 139.64 145.901C141.59 145.098 143.681 144.688 145.791 144.695C149.468 144.646 153.043 145.898 155.879 148.228L155.96 140.46Z" fill="#A0B0FD"/>
</svg>
