<svg xmlns="http://www.w3.org/2000/svg" width="323.878" height="99.355" viewBox="0 0 323.878 99.355">
  <g id="Group_1" data-name="Group 1" transform="translate(-791.949 -206.5)">
    <path id="Path_1" data-name="Path 1" d="M418.494,119.5H352.787a9.044,9.044,0,0,0-8.994,8.994V194.2a9.055,9.055,0,0,0,8.994,9.045H416.26l11.282,11.231V128.492A9.056,9.056,0,0,0,418.494,119.5Zm-10.208,50.26a24.188,24.188,0,1,1,0-16.771,9.027,9.027,0,0,1,0,16.771Z" transform="translate(448.156 87.503)" fill="#4361ee" fill-rule="evenodd"/>
    <path id="Union_2" data-name="Union 2" d="M271.252,98.355,277.9,82.977,265.564,52.9h8.725l7.954,21.547,8.1-21.547h8.291L279.543,98.355ZM0,41.875H34.76a17.38,17.38,0,0,1-34.76,0ZM120.326,38.9V22.318H103.648V38.9H95.838V0h7.809V16h16.678V0h7.761V38.9Z" transform="translate(816.443 207)" fill="#ef570d" stroke="rgba(0,0,0,0)" stroke-miterlimit="10" stroke-width="1"/>
    <path id="Union_1" data-name="Union 1" d="M136.612,82.254a13.852,13.852,0,0,1-5.063-5.69,17.876,17.876,0,0,1-1.879-8.338,17.877,17.877,0,0,1,1.879-8.338,13.428,13.428,0,0,1,5.063-5.544,13.737,13.737,0,0,1,7.182-1.979,12.423,12.423,0,0,1,5.735,1.352,11.694,11.694,0,0,1,4.387,3.47V44.847h7.9v38.9h-7.9V79.167a10.408,10.408,0,0,1-4.1,3.664,12.273,12.273,0,0,1-6.072,1.4A13.592,13.592,0,0,1,136.612,82.254Zm5.155-21.98a7.82,7.82,0,0,0-2.989,3.131,9.526,9.526,0,0,0-1.156,4.821,9.961,9.961,0,0,0,1.156,4.868,7.961,7.961,0,0,0,2.989,3.183,7.5,7.5,0,0,0,4,1.108,7.938,7.938,0,0,0,4.049-1.061,8.262,8.262,0,0,0,3.036-3.135,11.238,11.238,0,0,0,0-9.737,8.273,8.273,0,0,0-3.036-3.132,7.938,7.938,0,0,0-4.049-1.061A8.092,8.092,0,0,0,141.767,60.274Zm-112.6,21.98a14.217,14.217,0,0,1-5.063-5.69,17.876,17.876,0,0,1-1.879-8.338A17.877,17.877,0,0,1,24.1,59.888a13.776,13.776,0,0,1,5.063-5.544,13.493,13.493,0,0,1,7.182-1.979,12.782,12.782,0,0,1,6.025,1.4,12.444,12.444,0,0,1,4.145,3.521V52.9h7.86V83.749h-7.86v-4.53a11.715,11.715,0,0,1-4.145,3.613,12.525,12.525,0,0,1-6.072,1.4A13.468,13.468,0,0,1,29.165,82.254Zm5.159-21.98a8.125,8.125,0,0,0-2.989,3.131,9.517,9.517,0,0,0-1.108,4.821,9.944,9.944,0,0,0,1.108,4.868,8.043,8.043,0,0,0,3.036,3.183,7.218,7.218,0,0,0,3.951,1.108,8.237,8.237,0,0,0,4.1-1.061,7.79,7.79,0,0,0,2.989-3.135,11.238,11.238,0,0,0,0-9.737,7.8,7.8,0,0,0-2.989-3.132,8.237,8.237,0,0,0-4.1-1.061A8.079,8.079,0,0,0,34.324,60.274ZM66.379,82.593a10.66,10.66,0,0,1-4.388-4.483A15.132,15.132,0,0,1,60.4,70.973V52.9H68.21V69.864a8.227,8.227,0,0,0,1.832,5.691,7.411,7.411,0,0,0,10.075,0,8.015,8.015,0,0,0,1.832-5.691V52.9h7.856V83.749H81.949V79.843a9.992,9.992,0,0,1-3.907,3.135,12.13,12.13,0,0,1-5.253,1.157A13.169,13.169,0,0,1,66.379,82.593Zm101.709,1.156V52.9H175.9V58.1A10.662,10.662,0,0,1,179.85,54.3a10.4,10.4,0,0,1,5.544-1.4v8.195H183.32a8.111,8.111,0,0,0-5.544,1.686c-1.252,1.157-1.88,3.183-1.88,6.028V83.749Zm-50.276,0V66.684a7.89,7.89,0,0,0-1.879-5.639,6.531,6.531,0,0,0-5.015-1.979,6.634,6.634,0,0,0-5.059,1.979,7.886,7.886,0,0,0-1.88,5.639V83.749H96.168V52.9h7.809v3.856a10.869,10.869,0,0,1,4-3.18,13.21,13.21,0,0,1,14.22,2.36c2.265,2.314,3.374,5.545,3.374,9.689V83.749ZM0,83.749v-38.9H7.809V77.578H20.633v6.171ZM121.667,37.4a14.17,14.17,0,0,1-5.591-5.592,16.834,16.834,0,0,1-2.024-8.338,16.434,16.434,0,0,1,2.071-8.389,14.251,14.251,0,0,1,5.738-5.591,16.6,16.6,0,0,1,8.051-1.975,16.787,16.787,0,0,1,8.1,1.975,14.446,14.446,0,0,1,5.691,5.591,16.443,16.443,0,0,1,2.071,8.389,15.9,15.9,0,0,1-2.122,8.338,14.945,14.945,0,0,1-5.783,5.592,17.146,17.146,0,0,1-8.194,1.978A16.4,16.4,0,0,1,121.667,37.4Zm2.555-20.725c-1.542,1.589-2.265,3.855-2.265,6.8a9.7,9.7,0,0,0,2.17,6.748,7.259,7.259,0,0,0,5.544,2.36,8.26,8.26,0,0,0,4-1.01,8.02,8.02,0,0,0,2.989-3.087,10.829,10.829,0,0,0,1.108-5.012q0-4.411-2.316-6.8a7.526,7.526,0,0,0-5.64-2.365A7.35,7.35,0,0,0,124.222,16.679ZM60.112,37.4a13.646,13.646,0,0,1-5.5-5.592,16.813,16.813,0,0,1-1.975-8.338,17.457,17.457,0,0,1,1.928-8.437,13.73,13.73,0,0,1,5.448-5.544,16.525,16.525,0,0,1,8.1-1.975,16.215,16.215,0,0,1,7.86,1.88,13.228,13.228,0,0,1,5.4,5.4,15.966,15.966,0,0,1,1.928,8,18.884,18.884,0,0,1-.191,2.989H60.545a7.849,7.849,0,0,0,2.313,5.254,7.314,7.314,0,0,0,5.063,1.88A6.432,6.432,0,0,0,74.14,29.21h8.386a14.18,14.18,0,0,1-5.111,7.328,15.233,15.233,0,0,1-9.3,2.845A16.244,16.244,0,0,1,60.112,37.4ZM63,15.666a7.832,7.832,0,0,0-2.411,4.915H75.248a6.243,6.243,0,0,0-2.169-4.82,7.806,7.806,0,0,0-5.206-1.832A7.172,7.172,0,0,0,63,15.666Zm38.8,23.233V0h7.81V38.9Zm-14.124,0V0h7.761V38.9Z" transform="translate(896.276 207.001)" fill="#2b46c3" stroke="rgba(0,0,0,0)" stroke-miterlimit="10" stroke-width="1"/>
  </g>
</svg>
