<svg width="211" height="25" viewBox="0 0 211 25" fill="none" xmlns="http://www.w3.org/2000/svg">
<rect x="0.5" y="0.5" width="33" height="23" rx="3.5" fill="white"/>
<path fill-rule="evenodd" clip-rule="evenodd" d="M17.179 16.8295C15.9949 17.8275 14.459 18.43 12.7807 18.43C9.03582 18.43 6 15.4303 6 11.73C6 8.02972 9.03582 5.03003 12.7807 5.03003C14.459 5.03003 15.9949 5.63253 17.179 6.63057C18.363 5.63253 19.8989 5.03003 21.5773 5.03003C25.3221 5.03003 28.358 8.02972 28.358 11.73C28.358 15.4303 25.3221 18.43 21.5773 18.43C19.8989 18.43 18.363 17.8275 17.179 16.8295Z" fill="#ED0006"/>
<path fill-rule="evenodd" clip-rule="evenodd" d="M17.1787 16.8295C18.6367 15.6006 19.5611 13.772 19.5611 11.73C19.5611 9.68807 18.6367 7.85947 17.1787 6.63057C18.3628 5.63253 19.8987 5.03003 21.577 5.03003C25.3219 5.03003 28.3577 8.02972 28.3577 11.73C28.3577 15.4303 25.3219 18.43 21.577 18.43C19.8987 18.43 18.3628 17.8275 17.1787 16.8295Z" fill="#F9A000"/>
<path fill-rule="evenodd" clip-rule="evenodd" d="M17.1793 16.8295C18.6372 15.6006 19.5616 13.772 19.5616 11.73C19.5616 9.68809 18.6372 7.85949 17.1793 6.63059C15.7213 7.85949 14.7969 9.68809 14.7969 11.73C14.7969 13.772 15.7213 15.6006 17.1793 16.8295Z" fill="#FF5E00"/>
<rect x="0.5" y="0.5" width="33" height="23" rx="3.5" stroke="#F9F7F6"/>
<rect x="49.5" y="0.5" width="33" height="23" rx="3.5" fill="white"/>
<path fill-rule="evenodd" clip-rule="evenodd" d="M59.7501 15.8582H57.6903L56.1458 9.79235C56.0724 9.51332 55.9168 9.26664 55.6878 9.15038C55.1164 8.85821 54.4867 8.62568 53.7998 8.50841V8.27487H57.1179C57.5758 8.27487 57.9193 8.62568 57.9765 9.0331L58.7779 13.4086L60.8367 8.27487H62.8392L59.7501 15.8582ZM63.984 15.8582H62.0388L63.6406 8.27487H65.5858L63.984 15.8582ZM68.1025 10.3757C68.1597 9.96725 68.5032 9.73372 68.9039 9.73372C69.5336 9.67508 70.2195 9.79235 70.7919 10.0835L71.1354 8.45079C70.5629 8.21725 69.9333 8.09998 69.3619 8.09998C67.4738 8.09998 66.1 9.15038 66.1 10.6082C66.1 11.7173 67.0731 12.2996 67.7601 12.6504C68.5032 13.0002 68.7894 13.2337 68.7322 13.5835C68.7322 14.1082 68.1597 14.3418 67.5883 14.3418C66.9014 14.3418 66.2145 14.1669 65.5858 13.8747L65.2424 15.5084C65.9293 15.7996 66.6724 15.9169 67.3594 15.9169C69.4763 15.9745 70.7919 14.9251 70.7919 13.35C70.7919 11.3664 68.1025 11.2502 68.1025 10.3757ZM77.5998 15.8582L76.0553 8.27487H74.3962C74.0528 8.27487 73.7093 8.50841 73.5948 8.85821L70.7347 15.8582H72.7372L73.1369 14.7502H75.5973L75.8263 15.8582H77.5998ZM74.6824 10.3171L75.2539 13.1751H73.6521L74.6824 10.3171Z" fill="#172B85"/>
<rect x="49.5" y="0.5" width="33" height="23" rx="3.5" stroke="#F9F7F6"/>
<rect x="98.5" y="0.5" width="47.6486" height="23" rx="3.5" fill="white" stroke="#CDCDCD"/>
<path d="M110.954 8.22458C110.523 7.93105 109.961 7.78394 109.267 7.78394H106.582C106.369 7.78394 106.251 7.88932 106.229 8.09988L105.138 14.8854C105.127 14.9521 105.144 15.013 105.189 15.0684C105.233 15.1239 105.289 15.1515 105.356 15.1515H106.632C106.856 15.1515 106.979 15.0464 107.001 14.8356L107.303 13.0062C107.314 12.9176 107.354 12.8455 107.421 12.79C107.488 12.7346 107.572 12.6983 107.673 12.6817C107.773 12.6653 107.868 12.6569 107.958 12.6569C108.047 12.6569 108.154 12.6626 108.277 12.6736C108.4 12.6846 108.478 12.6901 108.512 12.6901C109.474 12.6901 110.23 12.4214 110.778 11.8835C111.326 11.3458 111.6 10.6003 111.6 9.6465C111.6 8.99235 111.385 8.51841 110.954 8.22443V8.22458ZM109.569 10.2621C109.513 10.6502 109.368 10.9051 109.133 11.0271C108.898 11.1493 108.562 11.2101 108.126 11.2101L107.572 11.2266L107.857 9.44702C107.88 9.32517 107.952 9.26417 108.076 9.26417H108.395C108.842 9.26417 109.167 9.32807 109.368 9.45536C109.569 9.58296 109.637 9.85193 109.569 10.2621Z" fill="#003087"/>
<path d="M139.296 7.78369H138.054C137.93 7.78369 137.858 7.84469 137.835 7.96675L136.744 14.8855L136.728 14.9187C136.728 14.9744 136.75 15.0269 136.795 15.0768C136.839 15.1266 136.896 15.1516 136.963 15.1516H138.071C138.283 15.1516 138.4 15.0464 138.423 14.8356L139.514 8.03329V8.01677C139.514 7.86147 139.441 7.7839 139.296 7.7839V7.78369Z" fill="#009CDE"/>
<path d="M124.289 10.4611C124.289 10.4058 124.267 10.353 124.222 10.3033C124.177 10.2534 124.127 10.2283 124.071 10.2283H122.779C122.655 10.2283 122.555 10.284 122.476 10.3946L120.697 12.9892L119.959 10.4944C119.902 10.3172 119.78 10.2283 119.589 10.2283H118.33C118.274 10.2283 118.224 10.2533 118.179 10.3033C118.135 10.353 118.112 10.4059 118.112 10.4611C118.112 10.4834 118.221 10.8104 118.44 11.4424C118.658 12.0746 118.893 12.7565 119.145 13.4883C119.396 14.22 119.528 14.6083 119.539 14.6522C118.621 15.8943 118.163 16.5595 118.163 16.648C118.163 16.7923 118.235 16.8643 118.381 16.8643H119.673C119.796 16.8643 119.897 16.809 119.976 16.6981L124.256 10.5775C124.278 10.5555 124.289 10.5169 124.289 10.461V10.4611Z" fill="#003087"/>
<path d="M136.327 10.2282H135.051C134.894 10.2282 134.8 10.4112 134.766 10.7772C134.475 10.3338 133.944 10.1118 133.171 10.1118C132.366 10.1118 131.68 10.4112 131.115 11.01C130.55 11.6087 130.268 12.313 130.268 13.1223C130.268 13.7766 130.461 14.2977 130.847 14.6856C131.233 15.074 131.75 15.2677 132.399 15.2677C132.724 15.2677 133.054 15.2011 133.39 15.0682C133.725 14.9351 133.988 14.7578 134.179 14.536C134.179 14.5471 134.167 14.5968 134.145 14.6855C134.122 14.7743 134.111 14.8411 134.111 14.8851C134.111 15.0627 134.184 15.1511 134.33 15.1511H135.488C135.7 15.1511 135.823 15.046 135.857 14.8352L136.545 10.4943C136.556 10.4277 136.54 10.3669 136.495 10.3113C136.45 10.256 136.394 10.2282 136.327 10.2282ZM134.137 13.5048C133.851 13.782 133.507 13.9205 133.104 13.9205C132.78 13.9205 132.517 13.832 132.315 13.6545C132.114 13.4775 132.013 13.2335 132.013 12.9227C132.013 12.5127 132.153 12.1659 132.433 11.8832C132.712 11.6005 133.059 11.4592 133.473 11.4592C133.787 11.4592 134.047 11.5506 134.254 11.7335C134.461 11.9165 134.565 12.1687 134.565 12.4904C134.564 12.8895 134.422 13.2278 134.137 13.5048Z" fill="#009CDE"/>
<path d="M117.259 10.2282H115.983C115.826 10.2282 115.731 10.4112 115.698 10.7772C115.396 10.3338 114.864 10.1118 114.103 10.1118C113.297 10.1118 112.612 10.4112 112.047 11.01C111.482 11.6087 111.199 12.313 111.199 13.1223C111.199 13.7766 111.392 14.2977 111.778 14.6856C112.164 15.074 112.682 15.2677 113.331 15.2677C113.644 15.2677 113.969 15.2011 114.304 15.0682C114.64 14.9351 114.909 14.7578 115.11 14.536C115.065 14.6689 115.043 14.7854 115.043 14.8851C115.043 15.0627 115.116 15.1511 115.261 15.1511H116.419C116.632 15.1511 116.755 15.046 116.789 14.8352L117.477 10.4943C117.488 10.4277 117.471 10.3669 117.426 10.3113C117.382 10.256 117.326 10.2282 117.259 10.2282ZM115.068 13.513C114.783 13.785 114.433 13.9205 114.019 13.9205C113.695 13.9205 113.434 13.832 113.239 13.6545C113.043 13.4775 112.945 13.2335 112.945 12.9227C112.945 12.5127 113.085 12.1659 113.365 11.8832C113.644 11.6005 113.991 11.4591 114.405 11.4591C114.718 11.4591 114.979 11.5506 115.186 11.7335C115.393 11.9165 115.496 12.1687 115.496 12.4904C115.496 12.9006 115.354 13.2417 115.068 13.513Z" fill="#003087"/>
<path d="M130.023 8.22433C129.592 7.93081 129.03 7.78369 128.336 7.78369H125.667C125.443 7.78369 125.32 7.88907 125.298 8.09963L124.207 14.8852C124.195 14.9518 124.212 15.0128 124.257 15.0682C124.301 15.1237 124.358 15.1513 124.425 15.1513H125.801C125.935 15.1513 126.025 15.0793 126.07 14.9351L126.372 13.006C126.383 12.9173 126.422 12.8452 126.489 12.7897C126.556 12.7343 126.64 12.6981 126.741 12.6815C126.842 12.665 126.937 12.6567 127.026 12.6567C127.116 12.6567 127.222 12.6623 127.345 12.6734C127.468 12.6844 127.547 12.6898 127.58 12.6898C128.543 12.6898 129.298 12.4212 129.846 11.8832C130.395 11.3456 130.669 10.6 130.669 9.64626C130.669 8.99211 130.453 8.51811 130.023 8.22418V8.22433ZM128.302 10.9603C128.056 11.1265 127.687 11.2097 127.194 11.2097L126.657 11.2263L126.943 9.44668C126.965 9.32488 127.037 9.26377 127.161 9.26377H127.463C127.709 9.26377 127.905 9.2749 128.05 9.29702C128.196 9.31928 128.336 9.38847 128.47 9.50483C128.604 9.6213 128.671 9.79048 128.671 10.0121C128.671 10.478 128.548 10.7938 128.302 10.9603Z" fill="#009CDE"/>
<rect x="162.5" y="0.5" width="47.7587" height="23.0543" rx="3.5" fill="white" stroke="#CDCDCD"/>
<path d="M195.293 17.5468C196.491 17.5468 197.055 17.1012 197.548 15.7506L199.707 9.85177H198.457L197.009 14.4155H196.984L195.536 9.85795H194.251L196.334 15.4725L196.222 15.814C196.143 16.3028 195.693 16.6515 195.186 16.6155C195.089 16.6155 194.902 16.6057 194.825 16.5959V17.5231C194.98 17.5437 195.137 17.5535 195.293 17.553V17.5468ZM191.128 14.5927C190.472 14.5927 190.056 14.2836 190.056 13.8159C190.056 13.3312 190.457 13.049 191.225 13.0041L192.591 12.9202V13.356C192.561 14.074 191.938 14.6329 191.201 14.6035C191.176 14.6025 191.152 14.6004 191.128 14.5984V14.5927ZM190.798 15.508C191.542 15.5276 192.237 15.15 192.611 14.5232H192.637V15.4503H193.774V11.6103C193.774 10.4967 192.86 9.77914 191.453 9.77914C190.148 9.77914 189.182 10.5065 189.147 11.5063H190.254C190.387 10.9979 190.882 10.6625 191.417 10.7192C192.169 10.7192 192.591 11.0607 192.591 11.6891V12.1146L191.057 12.2037C189.63 12.2877 188.858 12.8568 188.858 13.8468C188.857 14.8508 189.654 15.5137 190.797 15.5137L190.798 15.508ZM184.205 8.74328H185.621C186.688 8.74328 187.298 9.29752 187.298 10.2726C187.298 11.2477 186.688 11.8066 185.617 11.8066H184.205V8.74328ZM182.975 7.7337V15.4488H184.205V12.8187H185.906C187.293 12.8913 188.476 11.8555 188.551 10.5049C188.555 10.4282 188.556 10.3519 188.553 10.2752C188.618 8.93953 187.56 7.80529 186.189 7.74091C186.108 7.7373 186.028 7.73782 185.947 7.74142L182.975 7.7337ZM178.896 9.17339C178.189 9.13372 177.585 9.56434 177.25 9.56434C176.915 9.56434 176.396 9.19348 175.838 9.20378C175.097 9.22232 174.423 9.62152 174.065 10.253C173.303 11.5299 173.867 13.4203 174.603 14.4593C174.964 14.9744 175.396 15.5384 175.964 15.5183C176.503 15.4988 176.716 15.1768 177.367 15.1768C178.017 15.1768 178.21 15.5183 178.779 15.508C179.368 15.4982 179.739 14.9929 180.1 14.4778C180.355 14.1131 180.553 13.7139 180.689 13.2931C179.995 12.9975 179.545 12.3314 179.542 11.5933C179.552 10.9422 179.902 10.3416 180.471 10.0001C180.108 9.49841 179.526 9.19038 178.897 9.16875L178.896 9.17339ZM178.455 8.49192C178.145 8.87154 177.672 9.08943 177.175 9.08067C177.143 8.60781 177.308 8.14268 177.632 7.78933C177.954 7.42464 178.409 7.19594 178.901 7.15112C178.936 7.63737 178.776 8.11744 178.454 8.49037" fill="black"/>
</svg>
