<svg width="282" height="270" viewBox="0 0 282 270" fill="none" xmlns="http://www.w3.org/2000/svg">
<path d="M161.248 228.692C159.268 230.803 157.395 232.164 155.915 233.239C138.519 245.88 117.934 242.195 113.559 241.295C107.099 239.967 94.6113 237.398 85.5829 226.647C71.924 210.38 74.0508 184.753 84.6456 167.837C86.5836 164.742 96.8204 147.568 117.627 144.814C130.219 143.147 144.896 146.509 155.526 155.527C177.839 174.457 176.25 212.699 161.248 228.692Z" fill="#FFE4D7"/>
<path d="M262.345 173.349C259.234 182.669 252.481 192.497 240.873 201.944C201.761 233.778 221.988 286.923 130.449 261.441C102.979 253.794 97.8365 264.382 66.6144 269.168C20.9082 276.172 3.96871 237.609 0.586443 203.978C-0.954678 188.656 0.689575 177.71 3.79174 169.232L4.71759 166.868L4.7211 166.861C4.7211 166.861 14.9171 165.824 18.6158 174.608C18.6158 174.608 21.9442 169.188 28.2317 171.072C34.5192 172.957 33.1633 178.175 33.1633 178.175C33.1633 178.175 42.9386 171.315 51.6556 180.286C60.3726 189.257 55.1082 202.027 55.1082 202.027C55.1082 202.027 63.2451 201.463 65.7108 207.709C65.7108 207.709 77.4011 202.592 84.7469 209.391C92.0939 216.19 99.8206 222.5 99.8206 222.5C99.8206 222.5 108.142 224.637 107.515 235.074C107.515 235.074 113.663 230.353 122.233 232.837C122.233 232.837 123.707 222.085 138.351 219.759C152.995 217.432 159.573 221.407 159.573 221.407C159.573 221.407 159.801 211.584 171.07 210.533C171.07 210.533 170.749 195.317 187.516 193.701C204.283 192.087 207.792 200.947 207.792 200.947C207.792 200.947 209.954 193.882 221.296 194.351C221.296 194.351 223.516 181.298 238.309 181.971C238.309 181.971 241.762 175.439 249.158 177.675C249.161 177.677 254.39 168.823 262.345 173.349Z" fill="#CADAFC"/>
<path d="M230.102 212.829C204.818 244.297 212.145 284.184 130.448 261.441C102.979 253.794 97.8362 264.383 66.6141 269.168C20.9078 276.172 3.96839 237.609 0.586122 203.978C-0.819052 190.005 0.425564 179.672 3.00738 171.529C3.00855 171.528 3.00855 171.528 3.00855 171.528C3.00855 171.528 11.4806 175.95 11.1115 183.031C11.1115 183.031 19.2483 180.362 25.7199 186.075C25.7199 186.075 35.1518 179.057 47.7269 186.075C60.3008 193.093 52.7182 207.709 52.7182 207.709C52.7182 207.709 59.7453 208.001 61.4094 215.081C61.4094 215.081 70.4147 209.596 76.3601 217.184C82.2163 224.657 76.9086 236.522 67.0348 239.367C69.1842 238.826 78.452 237.047 83.4586 245.083C83.4586 245.083 91.7373 236.511 100.335 245.083C100.335 245.083 109.831 241.999 113.76 250.48C113.76 250.48 119.455 240.293 131.171 244.02C142.887 247.747 143.282 256.195 143.282 256.195C143.282 256.195 146.355 249.983 154.116 251.722C154.116 251.722 151.214 237.063 166.529 233.335C166.529 233.335 168.036 221.408 181.229 222.403C181.229 222.403 186.285 216.904 192.202 218.411C192.202 218.411 209.791 200.053 230.102 212.829Z" fill="#8AB3FF"/>
<path d="M219.011 230.034C204.604 256.513 197.598 280.133 130.447 261.439C103.761 254.011 98.1482 263.792 69.2219 268.745C68.3723 268.889 67.5039 269.03 66.6132 269.167C58.5888 270.398 51.4504 270.222 45.1172 268.917C37.1022 267.264 30.3763 263.8 24.7708 259.079C13.6537 249.713 6.94891 235.403 3.35218 220.463C2.03139 214.98 1.13015 209.414 0.584023 203.977C0.273454 200.888 0.0918013 197.977 0.0273438 195.228C0.0273438 195.228 13.4415 197.998 15.5358 209.082C15.5358 209.082 18.6146 207.857 21.5726 210.533C24.5318 213.208 22.066 218.557 17.8739 219.361C17.8739 219.361 28.7227 220.662 27.2437 232.589C27.2437 232.589 33.5136 230.228 36.297 236.44C36.297 236.44 45.491 227.495 58.0661 233.21C70.6412 238.925 70.0247 249.236 70.0247 249.236C70.0247 249.236 75.9572 244.515 82.3607 248.491C88.7643 252.466 88.8874 256.442 88.8874 256.442C88.8874 256.442 91.9696 252.963 96.2847 254.952C96.2847 254.952 103.189 242.28 120.079 247.621C120.079 247.621 124.174 244.337 128.85 247.318C133.527 250.3 133.527 253.841 133.527 253.841C133.527 253.841 144.253 247.318 153.868 257.195C153.868 257.195 160.155 254.213 165.333 257.195C165.333 257.195 165.465 247.318 175.107 244.522C175.107 244.522 174.023 234.647 186.229 233.342C198.432 232.038 202.501 239.49 202.501 239.49C202.501 239.49 208.038 230.069 219.011 230.034Z" fill="#F8FBFF"/>
<path d="M169.626 63.4147C170.265 60.9296 170.626 57.3111 170.212 52.8538L170.866 52.924L181.86 54.1007C181.86 54.1007 181.92 57.548 182.201 60.7761C182.204 60.8026 182.205 60.8294 182.208 60.856C183.041 70.7898 169.096 65.4785 169.626 63.4147Z" fill="#FFD0AF"/>
<path d="M181.863 54.1048C181.863 54.1048 181.863 54.1048 181.987 57.5382C175.928 57.9151 172.455 55.8909 170.871 52.93L181.863 54.1048Z" fill="#FFBF93"/>
<path d="M186.316 52.6344C186.316 52.6344 173.993 59.9077 169.643 52.2385C165.293 44.5693 160.774 40.3441 168.459 35.3755C176.144 30.407 179.345 32.4558 181.426 34.6562C183.506 36.8589 189.41 50.5451 186.316 52.6344Z" fill="#FFD0AF"/>
<path d="M158.723 38.0341C158.551 37.9428 158.232 37.9379 157.606 38.1418C157.606 38.1418 157.979 37.643 158.627 37.372C158.427 36.4637 158.299 34.7673 159.625 33.8281C159.625 33.8281 158.998 34.5566 159.245 35.5111C160.272 33.0931 163.423 30.4 173.809 27.2898C187.498 23.1904 186.396 33.4613 185.067 35.1491C183.738 36.8389 178.338 35.7167 175.232 37.2168C172.126 38.7169 173.299 43.6195 172.456 44.6827C171.614 45.7459 171.608 44.4473 169.881 44.347C168.154 44.2486 168.952 46.7573 169.988 48.1907C171.024 49.622 169.806 52.5127 169.806 52.5127C169.806 52.5127 169.806 52.5127 166.917 51.0896C164.027 49.6665 158.514 41.0247 158.678 38.6632C158.695 38.4581 158.707 38.2474 158.723 38.0341Z" fill="#3B446A"/>
<path d="M70.1806 222.257L68.7754 220.339C67.6578 218.814 65.624 218.295 63.8199 218.867C62.8201 219.184 61.6866 219.483 60.6031 219.632C59.775 219.744 59.053 220.246 58.6432 220.975C57.9838 222.148 57.4355 223.683 57.2481 225.664C56.6616 231.852 54.8356 244.92 55.145 246.814C55.1687 246.959 55.1955 247.108 55.2263 247.26C55.6662 249.437 58.1958 249.707 59.4174 247.85C59.8239 247.232 60.2183 246.573 60.5781 245.908C62.279 242.765 68.0175 233.367 69.3909 229.844C70.7626 226.32 70.1806 222.257 70.1806 222.257Z" fill="#4361EE"/>
<path d="M131.003 181.856L129.927 179.722C129.077 178.036 127.162 177.188 125.291 177.452C124.251 177.598 123.082 177.703 121.987 177.669C121.152 177.643 120.357 178.017 119.832 178.669C118.99 179.716 118.197 181.138 117.687 183.059C116.092 189.064 112.146 201.648 112.141 203.567C112.14 203.717 112.143 203.872 112.148 204.03C112.227 206.248 114.674 206.932 116.184 205.304C116.687 204.762 117.185 204.177 117.65 203.581C119.843 200.764 127.047 192.453 128.979 189.207C130.911 185.959 131.003 181.856 131.003 181.856Z" fill="#4361EE"/>
<path d="M216.715 33.0664L244.224 12.3509C244.393 12.2226 244.52 12.0459 244.586 11.8424L247.643 2.48615C247.725 2.23409 247.9 2.02316 248.131 1.89589L250.012 0.871618C250.199 0.770302 250.413 0.728648 250.624 0.753185L256.39 1.44249C256.855 1.4981 257.225 1.86366 257.29 2.3307L257.672 5.06379C257.709 5.32979 257.641 5.60109 257.485 5.81802L256.687 6.9302C256.457 7.25021 256.427 7.67331 256.609 8.0228C256.812 8.41342 256.751 8.88982 256.453 9.21107C255.474 10.2647 253.018 12.5902 249.128 14.1724C248.995 14.2259 248.871 14.3088 248.773 14.4131L223.884 40.5492C223.482 40.9721 222.812 40.9764 222.404 40.5605L216.597 34.6315C216.158 34.1805 216.213 33.4443 216.715 33.0664Z" fill="#FFD0AF"/>
<path d="M176.296 64.7764L215.486 33.0636C216.257 32.4401 217.365 32.4753 218.089 33.1517C219.683 34.6393 222.337 37.3189 223.548 39.6874C224 40.5727 223.804 41.6512 223.077 42.3244L182.432 79.9334L176.296 64.7764Z" fill="#D0D0D0"/>
<path d="M70.5835 211.765C69.9687 212.543 65.4371 220.453 64.4565 222.169C64.2921 222.458 64.1796 222.77 64.133 223.1C64.0071 223.998 64.0615 225.723 65.9152 227.019C67.0496 227.812 68.6022 227.578 69.4589 226.49L77.6098 216.132L70.5835 211.765Z" fill="#FFD0AF"/>
<path d="M133.013 171.188C132.279 171.852 126.511 178.899 125.262 180.427C125.053 180.683 124.891 180.973 124.791 181.29C124.518 182.155 124.29 183.866 125.905 185.451C126.893 186.421 128.464 186.451 129.488 185.519L138.226 175.78L133.013 171.188Z" fill="#FFD0AF"/>
<path d="M144.486 133.676C144.532 131.455 157.162 132.511 168.275 131.454C174.111 130.898 177.415 138.026 173.248 142.182L138.95 176.386C138.232 177.102 137.172 177.356 136.219 177.02C134.909 176.559 133.015 175.724 131.346 174.34C130.371 173.532 130.224 172.08 130.971 171.054L145.199 151.522C145.754 150.76 145.045 149.724 144.134 149.968L134.227 152.623C133.233 152.889 132.344 153.456 131.683 154.246L77.8855 218.505C76.9803 219.588 75.4175 219.816 74.245 219.038C72.6922 218.011 70.628 216.47 69.2801 214.783C68.5692 213.892 68.5482 212.631 69.1894 211.687C75.2724 202.737 108.331 153.966 109.956 148.863C111.748 143.241 118.109 133.01 123.864 132.762C129.619 132.515 144.486 133.676 144.486 133.676Z" fill="#331F50"/>
<path d="M182.756 64.2713C182.756 64.2713 189.306 71.2991 187.908 83.1553C187.497 86.6446 186.07 89.9338 183.877 92.6656L149.179 135.882C148.379 136.879 147.219 137.515 145.951 137.644C140.969 138.154 127.729 139.075 118.444 135.757C117.705 135.492 117.401 134.604 117.802 133.926L149.645 80.1139L168.702 58.6931C168.702 58.6931 177.634 55.8099 182.756 64.2713Z" fill="#D0D0D0"/>
<path d="M139.435 120.666C139.308 120.68 139.176 120.647 139.067 120.562C138.846 120.389 138.805 120.067 138.977 119.845C139.279 119.453 169.223 80.5397 171.302 75.7526C173.25 71.2599 168.849 67.6098 168.806 67.5745C168.588 67.3962 168.554 67.0751 168.729 66.8545C168.906 66.6353 169.225 66.6012 169.444 66.7777C169.495 66.8187 174.489 70.9635 172.233 76.163C170.105 81.0666 141.017 118.866 139.78 120.473C139.692 120.584 139.567 120.651 139.435 120.666Z" fill="#BEBDBD"/>
<path d="M128.006 116.907C128.006 116.907 133.629 120.621 138.331 121.206L123.739 138.687C123.739 138.687 121.418 150.146 119.57 151.664C117.722 153.182 112.539 154.114 111.247 151.488C109.955 148.862 109.565 146.078 109.565 146.078C109.565 146.078 110.429 144.764 111.896 147.223L111.921 145.998C111.936 145.274 112.686 144.838 113.201 145.345C113.681 145.816 114.109 146.466 114.079 147.269C114.079 147.269 112.276 139.8 115.436 137.426C118.595 135.053 119.403 134.678 119.403 134.678L128.006 116.907Z" fill="#FFD0AF"/>
<path d="M75.4697 114.026C74.6785 114.16 74.2376 115.025 74.5784 115.757C76.1477 119.119 80.8207 126.561 90.812 124.457C103.604 121.762 143.058 92.9983 152.018 85.1008C160.979 77.2031 172.832 67.3782 178.499 68.9037C184.165 70.4291 180.799 67.0314 176.908 64.278C173.017 61.5246 171.634 57.5754 174.557 58.369C174.557 58.369 167.518 55.902 156.571 61.6853C145.873 67.3362 93.815 86.3263 76.6466 80.1479C76.0118 79.9199 75.3266 80.3198 75.1959 80.9874C74.4611 84.7579 73.2426 96.2103 81.6436 109.571C82.2989 110.613 81.9259 112.008 80.7783 112.457C79.3178 113.03 77.3247 113.713 75.4697 114.026Z" fill="#EF570D"/>
<path d="M84.2481 110.668C84.0245 110.671 83.8133 110.537 83.7247 110.316C83.6114 110.028 83.7498 109.703 84.0339 109.589C84.1727 109.533 97.8713 104.012 100.866 102.064C101.124 101.896 101.467 101.972 101.634 102.231C101.801 102.491 101.726 102.838 101.468 103.006C98.3843 105.012 85.0139 110.401 84.4458 110.629C84.3812 110.655 84.3147 110.667 84.2481 110.668Z" fill="#FF9059"/>
<path d="M251.074 8.98435C251.036 8.98382 250.996 8.97376 250.961 8.95205C250.846 8.88603 250.808 8.73917 250.873 8.62409C250.932 8.51942 252.351 6.08818 254.055 6.65479C255.391 7.09872 255.769 6.95186 255.773 6.94974C255.883 6.8779 256.022 6.91709 256.093 7.02812C256.164 7.13914 256.122 7.29341 256.011 7.36543C255.903 7.43373 255.434 7.61978 253.906 7.11053C252.566 6.66236 251.299 8.84173 251.288 8.86397C251.24 8.94323 251.157 8.98629 251.074 8.98435Z" fill="#FFBF93"/>
<path d="M191.219 78.6027C191.954 83.0459 190.999 93.5984 181.299 100.263C186.189 98.4419 195.019 91.5599 191.219 78.6027Z" fill="#C4C4C4"/>
<path d="M72.2655 82.1987C70.0609 97.3055 74.2864 104.785 76.6747 106.636C74.0533 105.805 68.8107 102.385 68.8107 95.3585C68.8106 92.2217 68.7382 85.7237 72.2655 82.1987Z" fill="#FF88BB"/>
<path d="M134.805 101.005C131.943 104.21 108.035 122.962 87.084 129.961C115.506 124.844 129.202 110.415 134.805 101.005Z" fill="#FF88BB"/>
<rect x="217" y="7" width="5" height="5" rx="2" fill="#FF006E"/>
<rect x="66.3203" y="148.056" width="4.40916" height="4.44317" rx="2" fill="#4361EE"/>
<path d="M127.783 54.9735C128.109 54.9735 128.371 54.7 128.371 54.3709V49.5368C128.371 49.2031 128.104 48.9343 127.783 48.9343C127.458 48.9343 127.195 49.2078 127.195 49.5368V54.3709C127.195 54.7 127.462 54.9735 127.783 54.9735Z" fill="#F42878"/>
<path d="M130.73 51.9531C130.73 51.6194 130.464 51.3506 130.143 51.3506H125.428C125.102 51.3506 124.84 51.6241 124.84 51.9531C124.84 52.2868 125.107 52.5557 125.428 52.5557H130.143C130.464 52.5557 130.73 52.2868 130.73 51.9531Z" fill="#FF006E"/>
<path d="M239.846 61.2516C240.171 61.2516 240.434 60.9782 240.434 60.6491V55.8104C240.434 55.4767 240.167 55.2079 239.846 55.2079C239.52 55.2079 239.258 55.4813 239.258 55.8104V60.6445C239.253 60.9782 239.52 61.2516 239.846 61.2516Z" fill="#6200EE"/>
<path d="M242.789 58.2291C242.789 57.8954 242.522 57.6266 242.201 57.6266H237.486C237.161 57.6266 236.899 57.9 236.899 58.2291C236.899 58.5628 237.165 58.8316 237.486 58.8316H242.201C242.527 58.8316 242.789 58.5628 242.789 58.2291Z" fill="#6200EE"/>
<path d="M218.362 140.831H208.984C208.586 140.831 208.262 140.482 208.262 140.052C208.262 139.623 208.586 139.273 208.984 139.273H218.362C218.76 139.273 219.084 139.623 219.084 140.052C219.086 140.482 218.762 140.831 218.362 140.831Z" fill="#EF570D"/>
</svg>
